<?xml version="1.0" standalone="no"?>
 <!DOCTYPE svg PUBLIC "-//W3C//DTD SVG 1.1//EN" 
 "http://www.w3.org/Graphics/SVG/1.1/DTD/svg11.dtd"> 
<svg xmlns="http://www.w3.org/2000/svg" version="1.1" 
    width="29.7002cm" height="21.0007cm" viewBox="0 0 116930 82680 ">
<title>SVG Picture created as LED_circuit-brd.svg date 2019/04/13 14:44:28 </title>
  <desc>Picture generated by PCBNEW </desc>
<g style="fill:#000000; fill-opacity:1;stroke:#000000; stroke-opacity:1;
stroke-linecap:round; stroke-linejoin:round; "
 transform="translate(0 0) scale(1 1)">
</g>
<g style="fill:#000000; fill-opacity:0.0; 
stroke:#000000; stroke-width:-0.000393701; stroke-opacity:1; 
stroke-linecap:round; stroke-linejoin:round;">
</g>
<g style="fill:#000000; fill-opacity:0.0; 
stroke:#000000; stroke-width:39.3701; stroke-opacity:1; 
stroke-linecap:round; stroke-linejoin:round;">
</g>
<g style="fill:#000000; fill-opacity:0.0; 
stroke:#000000; stroke-width:59.0551; stroke-opacity:1; 
stroke-linecap:round; stroke-linejoin:round;">
<rect x="69685.9" y="65357.2" width="42519.7" height="12598.4" rx="0" />
</g>
<g style="fill:#000000; fill-opacity:0.0; 
stroke:#000000; stroke-width:39.3701; stroke-opacity:1; 
stroke-linecap:round; stroke-linejoin:round;">
</g>
<g style="fill:#000000; fill-opacity:0.0; 
stroke:#000000; stroke-width:59.0551; stroke-opacity:1; 
stroke-linecap:round; stroke-linejoin:round;">
<rect x="3937.01" y="3937.01" width="109056" height="74806" rx="0" />
</g>
<g style="fill:#000000; fill-opacity:0.0; 
stroke:#000000; stroke-width:39.3701; stroke-opacity:1; 
stroke-linecap:round; stroke-linejoin:round;">
</g>
<g style="fill:#000000; fill-opacity:0.0; 
stroke:#000000; stroke-width:59.0551; stroke-opacity:1; 
stroke-linecap:round; stroke-linejoin:round;">
<rect x="4724.41" y="4724.41" width="107481" height="73231.2" rx="0" />
</g>
<g style="fill:#000000; fill-opacity:0.0; 
stroke:#000000; stroke-width:39.3701; stroke-opacity:1; 
stroke-linecap:round; stroke-linejoin:round;">
</g>
<g style="fill:#000000; fill-opacity:0.0; 
stroke:#000000; stroke-width:59.0551; stroke-opacity:1; 
stroke-linecap:round; stroke-linejoin:round;">
<path d="M23622 4724
L23622 3937
" />
</g>
<g style="fill:#000000; fill-opacity:0.0; 
stroke:#000000; stroke-width:39.3701; stroke-opacity:1; 
stroke-linecap:round; stroke-linejoin:round;">
</g>
<g style="fill:#000000; fill-opacity:0.0; 
stroke:#000000; stroke-width:59.0551; stroke-opacity:1; 
stroke-linecap:round; stroke-linejoin:round;">
<path d="M43307 4724
L43307 3937
" />
</g>
<g style="fill:#000000; fill-opacity:0.0; 
stroke:#000000; stroke-width:39.3701; stroke-opacity:1; 
stroke-linecap:round; stroke-linejoin:round;">
</g>
<g style="fill:#000000; fill-opacity:0.0; 
stroke:#000000; stroke-width:59.0551; stroke-opacity:1; 
stroke-linecap:round; stroke-linejoin:round;">
<path d="M62992 4724
L62992 3937
" />
</g>
<g style="fill:#000000; fill-opacity:0.0; 
stroke:#000000; stroke-width:39.3701; stroke-opacity:1; 
stroke-linecap:round; stroke-linejoin:round;">
</g>
<g style="fill:#000000; fill-opacity:0.0; 
stroke:#000000; stroke-width:59.0551; stroke-opacity:1; 
stroke-linecap:round; stroke-linejoin:round;">
<path d="M82677 4724
L82677 3937
" />
</g>
<g style="fill:#000000; fill-opacity:0.0; 
stroke:#000000; stroke-width:39.3701; stroke-opacity:1; 
stroke-linecap:round; stroke-linejoin:round;">
</g>
<g style="fill:#000000; fill-opacity:0.0; 
stroke:#000000; stroke-width:59.0551; stroke-opacity:1; 
stroke-linecap:round; stroke-linejoin:round;">
<path d="M102362 4724
L102362 3937
" />
</g>
<g style="fill:#000000; fill-opacity:0.0; 
stroke:#000000; stroke-width:39.3701; stroke-opacity:1; 
stroke-linecap:round; stroke-linejoin:round;">
</g>
<g style="fill:#000000; fill-opacity:0.0; 
stroke:#000000; stroke-width:59.0551; stroke-opacity:1; 
stroke-linecap:round; stroke-linejoin:round;">
<path d="M14199 4562
L13906 4562
" />
<path d="M14052 4562
L14052 4050
L14004 4123
L13955 4172
L13906 4196
" />
</g>
<g style="fill:#000000; fill-opacity:0.0; 
stroke:#000000; stroke-width:39.3701; stroke-opacity:1; 
stroke-linecap:round; stroke-linejoin:round;">
</g>
<g style="fill:#000000; fill-opacity:0.0; 
stroke:#000000; stroke-width:59.0551; stroke-opacity:1; 
stroke-linecap:round; stroke-linejoin:round;">
<path d="M33591 4099
L33615 4074
L33664 4050
L33786 4050
L33835 4074
L33859 4099
L33884 4147
L33884 4196
L33859 4269
L33567 4562
L33884 4562
" />
</g>
<g style="fill:#000000; fill-opacity:0.0; 
stroke:#000000; stroke-width:39.3701; stroke-opacity:1; 
stroke-linecap:round; stroke-linejoin:round;">
</g>
<g style="fill:#000000; fill-opacity:0.0; 
stroke:#000000; stroke-width:59.0551; stroke-opacity:1; 
stroke-linecap:round; stroke-linejoin:round;">
<path d="M53252 4050
L53569 4050
L53398 4245
L53471 4245
L53520 4269
L53544 4294
L53569 4342
L53569 4464
L53544 4513
L53520 4537
L53471 4562
L53325 4562
L53276 4537
L53252 4513
" />
</g>
<g style="fill:#000000; fill-opacity:0.0; 
stroke:#000000; stroke-width:39.3701; stroke-opacity:1; 
stroke-linecap:round; stroke-linejoin:round;">
</g>
<g style="fill:#000000; fill-opacity:0.0; 
stroke:#000000; stroke-width:59.0551; stroke-opacity:1; 
stroke-linecap:round; stroke-linejoin:round;">
<path d="M73205 4221
L73205 4562
" />
<path d="M73083 4026
L72961 4391
L73278 4391
" />
</g>
<g style="fill:#000000; fill-opacity:0.0; 
stroke:#000000; stroke-width:39.3701; stroke-opacity:1; 
stroke-linecap:round; stroke-linejoin:round;">
</g>
<g style="fill:#000000; fill-opacity:0.0; 
stroke:#000000; stroke-width:59.0551; stroke-opacity:1; 
stroke-linecap:round; stroke-linejoin:round;">
<path d="M92914 4050
L92671 4050
L92646 4294
L92671 4269
L92719 4245
L92841 4245
L92890 4269
L92914 4294
L92939 4342
L92939 4464
L92914 4513
L92890 4537
L92841 4562
L92719 4562
L92671 4537
L92646 4513
" />
</g>
<g style="fill:#000000; fill-opacity:0.0; 
stroke:#000000; stroke-width:39.3701; stroke-opacity:1; 
stroke-linecap:round; stroke-linejoin:round;">
</g>
<g style="fill:#000000; fill-opacity:0.0; 
stroke:#000000; stroke-width:59.0551; stroke-opacity:1; 
stroke-linecap:round; stroke-linejoin:round;">
<path d="M112575 4050
L112477 4050
L112429 4074
L112404 4099
L112356 4172
L112331 4269
L112331 4464
L112356 4513
L112380 4537
L112429 4562
L112526 4562
L112575 4537
L112599 4513
L112624 4464
L112624 4342
L112599 4294
L112575 4269
L112526 4245
L112429 4245
L112380 4269
L112356 4294
L112331 4342
" />
</g>
<g style="fill:#000000; fill-opacity:0.0; 
stroke:#000000; stroke-width:39.3701; stroke-opacity:1; 
stroke-linecap:round; stroke-linejoin:round;">
</g>
<g style="fill:#000000; fill-opacity:0.0; 
stroke:#000000; stroke-width:59.0551; stroke-opacity:1; 
stroke-linecap:round; stroke-linejoin:round;">
<path d="M23622 77955
L23622 78742
" />
</g>
<g style="fill:#000000; fill-opacity:0.0; 
stroke:#000000; stroke-width:39.3701; stroke-opacity:1; 
stroke-linecap:round; stroke-linejoin:round;">
</g>
<g style="fill:#000000; fill-opacity:0.0; 
stroke:#000000; stroke-width:59.0551; stroke-opacity:1; 
stroke-linecap:round; stroke-linejoin:round;">
<path d="M43307 77955
L43307 78742
" />
</g>
<g style="fill:#000000; fill-opacity:0.0; 
stroke:#000000; stroke-width:39.3701; stroke-opacity:1; 
stroke-linecap:round; stroke-linejoin:round;">
</g>
<g style="fill:#000000; fill-opacity:0.0; 
stroke:#000000; stroke-width:59.0551; stroke-opacity:1; 
stroke-linecap:round; stroke-linejoin:round;">
<path d="M62992 77955
L62992 78742
" />
</g>
<g style="fill:#000000; fill-opacity:0.0; 
stroke:#000000; stroke-width:39.3701; stroke-opacity:1; 
stroke-linecap:round; stroke-linejoin:round;">
</g>
<g style="fill:#000000; fill-opacity:0.0; 
stroke:#000000; stroke-width:59.0551; stroke-opacity:1; 
stroke-linecap:round; stroke-linejoin:round;">
<path d="M82677 77955
L82677 78742
" />
</g>
<g style="fill:#000000; fill-opacity:0.0; 
stroke:#000000; stroke-width:39.3701; stroke-opacity:1; 
stroke-linecap:round; stroke-linejoin:round;">
</g>
<g style="fill:#000000; fill-opacity:0.0; 
stroke:#000000; stroke-width:59.0551; stroke-opacity:1; 
stroke-linecap:round; stroke-linejoin:round;">
<path d="M102362 77955
L102362 78742
" />
</g>
<g style="fill:#000000; fill-opacity:0.0; 
stroke:#000000; stroke-width:39.3701; stroke-opacity:1; 
stroke-linecap:round; stroke-linejoin:round;">
</g>
<g style="fill:#000000; fill-opacity:0.0; 
stroke:#000000; stroke-width:59.0551; stroke-opacity:1; 
stroke-linecap:round; stroke-linejoin:round;">
<path d="M14199 78580
L13906 78580
" />
<path d="M14052 78580
L14052 78069
L14004 78142
L13955 78190
L13906 78215
" />
</g>
<g style="fill:#000000; fill-opacity:0.0; 
stroke:#000000; stroke-width:39.3701; stroke-opacity:1; 
stroke-linecap:round; stroke-linejoin:round;">
</g>
<g style="fill:#000000; fill-opacity:0.0; 
stroke:#000000; stroke-width:59.0551; stroke-opacity:1; 
stroke-linecap:round; stroke-linejoin:round;">
<path d="M33591 78117
L33615 78093
L33664 78069
L33786 78069
L33835 78093
L33859 78117
L33884 78166
L33884 78215
L33859 78288
L33567 78580
L33884 78580
" />
</g>
<g style="fill:#000000; fill-opacity:0.0; 
stroke:#000000; stroke-width:39.3701; stroke-opacity:1; 
stroke-linecap:round; stroke-linejoin:round;">
</g>
<g style="fill:#000000; fill-opacity:0.0; 
stroke:#000000; stroke-width:59.0551; stroke-opacity:1; 
stroke-linecap:round; stroke-linejoin:round;">
<path d="M53252 78069
L53569 78069
L53398 78263
L53471 78263
L53520 78288
L53544 78312
L53569 78361
L53569 78483
L53544 78532
L53520 78556
L53471 78580
L53325 78580
L53276 78556
L53252 78532
" />
</g>
<g style="fill:#000000; fill-opacity:0.0; 
stroke:#000000; stroke-width:39.3701; stroke-opacity:1; 
stroke-linecap:round; stroke-linejoin:round;">
</g>
<g style="fill:#000000; fill-opacity:0.0; 
stroke:#000000; stroke-width:59.0551; stroke-opacity:1; 
stroke-linecap:round; stroke-linejoin:round;">
<path d="M73205 78239
L73205 78580
" />
<path d="M73083 78044
L72961 78410
L73278 78410
" />
</g>
<g style="fill:#000000; fill-opacity:0.0; 
stroke:#000000; stroke-width:39.3701; stroke-opacity:1; 
stroke-linecap:round; stroke-linejoin:round;">
</g>
<g style="fill:#000000; fill-opacity:0.0; 
stroke:#000000; stroke-width:59.0551; stroke-opacity:1; 
stroke-linecap:round; stroke-linejoin:round;">
<path d="M92914 78069
L92671 78069
L92646 78312
L92671 78288
L92719 78263
L92841 78263
L92890 78288
L92914 78312
L92939 78361
L92939 78483
L92914 78532
L92890 78556
L92841 78580
L92719 78580
L92671 78556
L92646 78532
" />
</g>
<g style="fill:#000000; fill-opacity:0.0; 
stroke:#000000; stroke-width:39.3701; stroke-opacity:1; 
stroke-linecap:round; stroke-linejoin:round;">
</g>
<g style="fill:#000000; fill-opacity:0.0; 
stroke:#000000; stroke-width:59.0551; stroke-opacity:1; 
stroke-linecap:round; stroke-linejoin:round;">
<path d="M112575 78069
L112477 78069
L112429 78093
L112404 78117
L112356 78190
L112331 78288
L112331 78483
L112356 78532
L112380 78556
L112429 78580
L112526 78580
L112575 78556
L112599 78532
L112624 78483
L112624 78361
L112599 78312
L112575 78288
L112526 78263
L112429 78263
L112380 78288
L112356 78312
L112331 78361
" />
</g>
<g style="fill:#000000; fill-opacity:0.0; 
stroke:#000000; stroke-width:39.3701; stroke-opacity:1; 
stroke-linecap:round; stroke-linejoin:round;">
</g>
<g style="fill:#000000; fill-opacity:0.0; 
stroke:#000000; stroke-width:59.0551; stroke-opacity:1; 
stroke-linecap:round; stroke-linejoin:round;">
<path d="M3937 23622
L4724 23622
" />
</g>
<g style="fill:#000000; fill-opacity:0.0; 
stroke:#000000; stroke-width:39.3701; stroke-opacity:1; 
stroke-linecap:round; stroke-linejoin:round;">
</g>
<g style="fill:#000000; fill-opacity:0.0; 
stroke:#000000; stroke-width:59.0551; stroke-opacity:1; 
stroke-linecap:round; stroke-linejoin:round;">
<path d="M3937 43307
L4724 43307
" />
</g>
<g style="fill:#000000; fill-opacity:0.0; 
stroke:#000000; stroke-width:39.3701; stroke-opacity:1; 
stroke-linecap:round; stroke-linejoin:round;">
</g>
<g style="fill:#000000; fill-opacity:0.0; 
stroke:#000000; stroke-width:59.0551; stroke-opacity:1; 
stroke-linecap:round; stroke-linejoin:round;">
<path d="M3937 62992
L4724 62992
" />
</g>
<g style="fill:#000000; fill-opacity:0.0; 
stroke:#000000; stroke-width:39.3701; stroke-opacity:1; 
stroke-linecap:round; stroke-linejoin:round;">
</g>
<g style="fill:#000000; fill-opacity:0.0; 
stroke:#000000; stroke-width:59.0551; stroke-opacity:1; 
stroke-linecap:round; stroke-linejoin:round;">
<path d="M4208 13864
L4452 13864
" />
<path d="M4160 14011
L4330 13499
L4501 14011
" />
</g>
<g style="fill:#000000; fill-opacity:0.0; 
stroke:#000000; stroke-width:39.3701; stroke-opacity:1; 
stroke-linecap:round; stroke-linejoin:round;">
</g>
<g style="fill:#000000; fill-opacity:0.0; 
stroke:#000000; stroke-width:59.0551; stroke-opacity:1; 
stroke-linecap:round; stroke-linejoin:round;">
<path d="M4367 33428
L4440 33452
L4464 33476
L4489 33525
L4489 33598
L4464 33647
L4440 33671
L4391 33696
L4196 33696
L4196 33184
L4367 33184
L4416 33208
L4440 33233
L4464 33281
L4464 33330
L4440 33379
L4416 33403
L4367 33428
L4196 33428
" />
</g>
<g style="fill:#000000; fill-opacity:0.0; 
stroke:#000000; stroke-width:39.3701; stroke-opacity:1; 
stroke-linecap:round; stroke-linejoin:round;">
</g>
<g style="fill:#000000; fill-opacity:0.0; 
stroke:#000000; stroke-width:59.0551; stroke-opacity:1; 
stroke-linecap:round; stroke-linejoin:round;">
<path d="M4489 53332
L4464 53356
L4391 53381
L4342 53381
L4269 53356
L4221 53308
L4196 53259
L4172 53161
L4172 53088
L4196 52991
L4221 52942
L4269 52893
L4342 52869
L4391 52869
L4464 52893
L4489 52918
" />
</g>
<g style="fill:#000000; fill-opacity:0.0; 
stroke:#000000; stroke-width:39.3701; stroke-opacity:1; 
stroke-linecap:round; stroke-linejoin:round;">
</g>
<g style="fill:#000000; fill-opacity:0.0; 
stroke:#000000; stroke-width:59.0551; stroke-opacity:1; 
stroke-linecap:round; stroke-linejoin:round;">
<path d="M4196 73066
L4196 72554
L4318 72554
L4391 72578
L4440 72627
L4464 72676
L4489 72773
L4489 72846
L4464 72944
L4440 72993
L4391 73041
L4318 73066
L4196 73066
" />
</g>
<g style="fill:#000000; fill-opacity:0.0; 
stroke:#000000; stroke-width:39.3701; stroke-opacity:1; 
stroke-linecap:round; stroke-linejoin:round;">
</g>
<g style="fill:#000000; fill-opacity:0.0; 
stroke:#000000; stroke-width:59.0551; stroke-opacity:1; 
stroke-linecap:round; stroke-linejoin:round;">
<path d="M112992 23622
L112205 23622
" />
</g>
<g style="fill:#000000; fill-opacity:0.0; 
stroke:#000000; stroke-width:39.3701; stroke-opacity:1; 
stroke-linecap:round; stroke-linejoin:round;">
</g>
<g style="fill:#000000; fill-opacity:0.0; 
stroke:#000000; stroke-width:59.0551; stroke-opacity:1; 
stroke-linecap:round; stroke-linejoin:round;">
<path d="M112992 43307
L112205 43307
" />
</g>
<g style="fill:#000000; fill-opacity:0.0; 
stroke:#000000; stroke-width:39.3701; stroke-opacity:1; 
stroke-linecap:round; stroke-linejoin:round;">
</g>
<g style="fill:#000000; fill-opacity:0.0; 
stroke:#000000; stroke-width:59.0551; stroke-opacity:1; 
stroke-linecap:round; stroke-linejoin:round;">
<path d="M112992 62992
L112205 62992
" />
</g>
<g style="fill:#000000; fill-opacity:0.0; 
stroke:#000000; stroke-width:39.3701; stroke-opacity:1; 
stroke-linecap:round; stroke-linejoin:round;">
</g>
<g style="fill:#000000; fill-opacity:0.0; 
stroke:#000000; stroke-width:59.0551; stroke-opacity:1; 
stroke-linecap:round; stroke-linejoin:round;">
<path d="M112477 13864
L112721 13864
" />
<path d="M112428 14011
L112599 13499
L112769 14011
" />
</g>
<g style="fill:#000000; fill-opacity:0.0; 
stroke:#000000; stroke-width:39.3701; stroke-opacity:1; 
stroke-linecap:round; stroke-linejoin:round;">
</g>
<g style="fill:#000000; fill-opacity:0.0; 
stroke:#000000; stroke-width:59.0551; stroke-opacity:1; 
stroke-linecap:round; stroke-linejoin:round;">
<path d="M112635 33428
L112708 33452
L112733 33476
L112757 33525
L112757 33598
L112733 33647
L112708 33671
L112660 33696
L112465 33696
L112465 33184
L112635 33184
L112684 33208
L112708 33233
L112733 33281
L112733 33330
L112708 33379
L112684 33403
L112635 33428
L112465 33428
" />
</g>
<g style="fill:#000000; fill-opacity:0.0; 
stroke:#000000; stroke-width:39.3701; stroke-opacity:1; 
stroke-linecap:round; stroke-linejoin:round;">
</g>
<g style="fill:#000000; fill-opacity:0.0; 
stroke:#000000; stroke-width:59.0551; stroke-opacity:1; 
stroke-linecap:round; stroke-linejoin:round;">
<path d="M112757 53332
L112733 53356
L112660 53381
L112611 53381
L112538 53356
L112489 53308
L112465 53259
L112440 53161
L112440 53088
L112465 52991
L112489 52942
L112538 52893
L112611 52869
L112660 52869
L112733 52893
L112757 52918
" />
</g>
<g style="fill:#000000; fill-opacity:0.0; 
stroke:#000000; stroke-width:39.3701; stroke-opacity:1; 
stroke-linecap:round; stroke-linejoin:round;">
</g>
<g style="fill:#000000; fill-opacity:0.0; 
stroke:#000000; stroke-width:59.0551; stroke-opacity:1; 
stroke-linecap:round; stroke-linejoin:round;">
<path d="M112465 73066
L112465 72554
L112587 72554
L112660 72578
L112708 72627
L112733 72676
L112757 72773
L112757 72846
L112733 72944
L112708 72993
L112660 73041
L112587 73066
L112465 73066
" />
</g>
<g style="fill:#000000; fill-opacity:0.0; 
stroke:#000000; stroke-width:39.3701; stroke-opacity:1; 
stroke-linecap:round; stroke-linejoin:round;">
</g>
<g style="fill:#000000; fill-opacity:0.0; 
stroke:#000000; stroke-width:59.0551; stroke-opacity:1; 
stroke-linecap:round; stroke-linejoin:round;">
<path d="M78911 76293
L78911 75703
L79051 75703
L79136 75731
L79192 75787
L79220 75843
L79248 75956
L79248 76040
L79220 76153
L79192 76209
L79136 76265
L79051 76293
L78911 76293
" />
<path d="M79754 76293
L79754 75984
L79726 75928
L79670 75899
L79557 75899
L79501 75928
" />
<path d="M79754 76265
L79698 76293
L79557 76293
L79501 76265
L79473 76209
L79473 76153
L79501 76096
L79557 76068
L79698 76068
L79754 76040
" />
<path d="M79951 75899
L80176 75899
" />
<path d="M80036 75703
L80036 76209
L80064 76265
L80120 76293
L80176 76293
" />
<path d="M80598 76265
L80542 76293
L80429 76293
L80373 76265
L80345 76209
L80345 75984
L80373 75928
L80429 75899
L80542 75899
L80598 75928
L80626 75984
L80626 76040
L80345 76096
" />
<path d="M80879 76237
L80907 76265
L80879 76293
L80851 76265
L80879 76237
L80879 76293
" />
<path d="M80879 75928
L80907 75956
L80879 75984
L80851 75956
L80879 75928
L80879 75984
" />
</g>
<g style="fill:#000000; fill-opacity:0.0; 
stroke:#000000; stroke-width:39.3701; stroke-opacity:1; 
stroke-linecap:round; stroke-linejoin:round;">
</g>
<g style="fill:#000000; fill-opacity:0.0; 
stroke:#000000; stroke-width:59.0551; stroke-opacity:1; 
stroke-linecap:round; stroke-linejoin:round;">
<path d="M69685 76577
L112205 76577
" />
</g>
<g style="fill:#000000; fill-opacity:0.0; 
stroke:#000000; stroke-width:39.3701; stroke-opacity:1; 
stroke-linecap:round; stroke-linejoin:round;">
</g>
<g style="fill:#000000; fill-opacity:0.0; 
stroke:#000000; stroke-width:59.0551; stroke-opacity:1; 
stroke-linecap:round; stroke-linejoin:round;">
<path d="M70249 77395
L70249 76805
" />
<path d="M70587 77395
L70334 77058
" />
<path d="M70587 76805
L70249 77142
" />
<path d="M70840 77395
L70840 77002
" />
<path d="M70840 76805
L70812 76833
L70840 76861
L70868 76833
L70840 76805
L70840 76861
" />
<path d="M71458 77339
L71430 77367
L71346 77395
L71290 77395
L71205 77367
L71149 77311
L71121 77255
L71093 77142
L71093 77058
L71121 76946
L71149 76889
L71205 76833
L71290 76805
L71346 76805
L71430 76833
L71458 76861
" />
<path d="M71965 77395
L71965 77086
L71937 77030
L71880 77002
L71768 77002
L71712 77030
" />
<path d="M71965 77367
L71908 77395
L71768 77395
L71712 77367
L71683 77311
L71683 77255
L71712 77199
L71768 77171
L71908 77171
L71965 77142
" />
<path d="M72499 77395
L72499 76805
" />
<path d="M72499 77367
L72443 77395
L72330 77395
L72274 77367
L72246 77339
L72218 77283
L72218 77114
L72246 77058
L72274 77030
L72330 77002
L72443 77002
L72499 77030
" />
<path d="M73230 77086
L73427 77086
" />
<path d="M73511 77395
L73230 77395
L73230 76805
L73511 76805
" />
<path d="M73764 77339
L73793 77367
L73764 77395
L73736 77367
L73764 77339
L73764 77395
" />
<path d="M74046 77395
L74046 76805
L74186 76805
L74271 76833
L74327 76889
L74355 76946
L74383 77058
L74383 77142
L74355 77255
L74327 77311
L74271 77367
L74186 77395
L74046 77395
" />
<path d="M74636 77339
L74664 77367
L74636 77395
L74608 77367
L74636 77339
L74636 77395
" />
<path d="M74889 77227
L75171 77227
" />
<path d="M74833 77395
L75030 76805
L75227 77395
" />
<path d="M75424 77339
L75452 77367
L75424 77395
L75395 77367
L75424 77339
L75424 77395
" />
<path d="M76605 77395
L76605 76805
" />
<path d="M76661 77171
L76830 77395
" />
<path d="M76830 77002
L76605 77227
" />
<path d="M77083 77395
L77083 77002
" />
<path d="M77083 76805
L77055 76833
L77083 76861
L77111 76833
L77083 76805
L77083 76861
" />
<path d="M77617 77367
L77561 77395
L77448 77395
L77392 77367
L77364 77339
L77336 77283
L77336 77114
L77364 77058
L77392 77030
L77448 77002
L77561 77002
L77617 77030
" />
<path d="M78123 77395
L78123 77086
L78095 77030
L78039 77002
L77926 77002
L77870 77030
" />
<path d="M78123 77367
L78067 77395
L77926 77395
L77870 77367
L77842 77311
L77842 77255
L77870 77199
L77926 77171
L78067 77171
L78123 77142
" />
<path d="M78658 77395
L78658 76805
" />
<path d="M78658 77367
L78601 77395
L78489 77395
L78433 77367
L78404 77339
L78376 77283
L78376 77114
L78404 77058
L78433 77030
L78489 77002
L78601 77002
L78658 77030
" />
<path d="M79670 76805
L79389 76805
L79361 77086
L79389 77058
L79445 77030
L79586 77030
L79642 77058
L79670 77086
L79698 77142
L79698 77283
L79670 77339
L79642 77367
L79586 77395
L79445 77395
L79389 77367
L79361 77339
" />
<path d="M79951 77339
L79979 77367
L79951 77395
L79923 77367
L79951 77339
L79951 77395
" />
<path d="M80345 76805
L80401 76805
L80457 76833
L80485 76861
L80514 76917
L80542 77030
L80542 77171
L80514 77283
L80485 77339
L80457 77367
L80401 77395
L80345 77395
L80289 77367
L80260 77339
L80232 77283
L80204 77171
L80204 77030
L80232 76917
L80260 76861
L80289 76833
L80345 76805
" />
<path d="M80795 77339
L80823 77367
L80795 77395
L80767 77367
L80795 77339
L80795 77395
" />
<path d="M81048 76861
L81076 76833
L81132 76805
L81273 76805
L81329 76833
L81357 76861
L81385 76917
L81385 76974
L81357 77058
L81020 77395
L81385 77395
" />
<path d="M81638 77171
L82088 77171
" />
<path d="M82370 77395
L82370 76805
" />
<path d="M82370 77030
L82426 77002
L82538 77002
L82595 77030
L82623 77058
L82651 77114
L82651 77283
L82623 77339
L82595 77367
L82538 77395
L82426 77395
L82370 77367
" />
<path d="M83129 77367
L83073 77395
L82960 77395
L82904 77367
L82876 77311
L82876 77086
L82904 77030
L82960 77002
L83073 77002
L83129 77030
L83157 77086
L83157 77142
L82876 77199
" />
<path d="M83635 77367
L83579 77395
L83466 77395
L83410 77367
L83382 77311
L83382 77086
L83410 77030
L83466 77002
L83579 77002
L83635 77030
L83663 77086
L83663 77142
L83382 77199
" />
<path d="M83860 76805
L84254 76805
L84001 77395
" />
<path d="M84732 76805
L84619 76805
L84563 76833
L84535 76861
L84479 76946
L84451 77058
L84451 77283
L84479 77339
L84507 77367
L84563 77395
L84676 77395
L84732 77367
L84760 77339
L84788 77283
L84788 77142
L84760 77086
L84732 77058
L84676 77030
L84563 77030
L84507 77058
L84479 77086
L84451 77142
" />
<path d="M85294 77395
L85294 77086
L85266 77030
L85210 77002
L85097 77002
L85041 77030
" />
<path d="M85294 77367
L85238 77395
L85097 77395
L85041 77367
L85013 77311
L85013 77255
L85041 77199
L85097 77171
L85238 77171
L85294 77142
" />
<path d="M85688 76805
L85744 76805
L85800 76833
L85829 76861
L85857 76917
L85885 77030
L85885 77171
L85857 77283
L85829 77339
L85800 77367
L85744 77395
L85688 77395
L85632 77367
L85604 77339
L85575 77283
L85547 77171
L85547 77030
L85575 76917
L85604 76861
L85632 76833
L85688 76805
" />
<path d="M85997 76644
L86560 76644
" />
<path d="M86082 76805
L86475 76805
L86222 77395
" />
<path d="M86560 76644
L87122 76644
" />
<path d="M86813 76805
L86869 76805
L86925 76833
L86953 76861
L86982 76917
L87010 77030
L87010 77171
L86982 77283
L86953 77339
L86925 77367
L86869 77395
L86813 77395
L86757 77367
L86728 77339
L86700 77283
L86672 77171
L86672 77030
L86700 76917
L86728 76861
L86757 76833
L86813 76805
" />
<path d="M87516 77002
L87516 77395
" />
<path d="M87263 77002
L87263 77311
L87291 77367
L87347 77395
L87431 77395
L87488 77367
L87516 77339
" />
<path d="M87797 77395
L87797 76805
" />
<path d="M87797 77030
L87853 77002
L87966 77002
L88022 77030
L88050 77058
L88078 77114
L88078 77283
L88050 77339
L88022 77367
L87966 77395
L87853 77395
L87797 77367
" />
<path d="M88584 77002
L88584 77395
" />
<path d="M88331 77002
L88331 77311
L88359 77367
L88416 77395
L88500 77395
L88556 77367
L88584 77339
" />
<path d="M88866 77002
L88866 77395
" />
<path d="M88866 77058
L88894 77030
L88950 77002
L89034 77002
L89091 77030
L89119 77086
L89119 77395
" />
<path d="M89316 77002
L89541 77002
" />
<path d="M89400 76805
L89400 77311
L89428 77367
L89484 77395
L89541 77395
" />
<path d="M89991 77002
L89991 77395
" />
<path d="M89737 77002
L89737 77311
L89766 77367
L89822 77395
L89906 77395
L89962 77367
L89991 77339
" />
<path d="M90581 77395
L90244 77395
" />
<path d="M90412 77395
L90412 76805
L90356 76889
L90300 76946
L90244 76974
" />
<path d="M90919 77058
L90862 77030
L90834 77002
L90806 76946
L90806 76917
L90834 76861
L90862 76833
L90919 76805
L91031 76805
L91087 76833
L91115 76861
L91144 76917
L91144 76946
L91115 77002
L91087 77030
L91031 77058
L90919 77058
L90862 77086
L90834 77114
L90806 77171
L90806 77283
L90834 77339
L90862 77367
L90919 77395
L91031 77395
L91087 77367
L91115 77339
L91144 77283
L91144 77171
L91115 77114
L91087 77086
L91031 77058
" />
<path d="M91397 77339
L91425 77367
L91397 77395
L91368 77367
L91397 77339
L91397 77395
" />
<path d="M91790 76805
L91847 76805
L91903 76833
L91931 76861
L91959 76917
L91987 77030
L91987 77171
L91959 77283
L91931 77339
L91903 77367
L91847 77395
L91790 77395
L91734 77367
L91706 77339
L91678 77283
L91650 77171
L91650 77030
L91678 76917
L91706 76861
L91734 76833
L91790 76805
" />
<path d="M92493 77002
L92493 77395
" />
<path d="M92353 76777
L92212 77199
L92578 77199
" />
<path d="M92803 77339
L92831 77367
L92803 77395
L92775 77367
L92803 77339
L92803 77395
" />
<path d="M93393 77395
L93056 77395
" />
<path d="M93224 77395
L93224 76805
L93168 76889
L93112 76946
L93056 76974
" />
</g>
<g style="fill:#000000; fill-opacity:0.0; 
stroke:#000000; stroke-width:39.3701; stroke-opacity:1; 
stroke-linecap:round; stroke-linejoin:round;">
</g>
<g style="fill:#000000; fill-opacity:0.0; 
stroke:#000000; stroke-width:59.0551; stroke-opacity:1; 
stroke-linecap:round; stroke-linejoin:round;">
<path d="M69685 75396
L112205 75396
" />
</g>
<g style="fill:#000000; fill-opacity:0.0; 
stroke:#000000; stroke-width:39.3701; stroke-opacity:1; 
stroke-linecap:round; stroke-linejoin:round;">
</g>
<g style="fill:#000000; fill-opacity:0.0; 
stroke:#000000; stroke-width:118.11; stroke-opacity:1; 
stroke-linecap:round; stroke-linejoin:round;">
<path d="M104099 76293
L103902 76012
" />
<path d="M103761 76293
L103761 75703
L103986 75703
L104042 75731
L104070 75759
L104099 75815
L104099 75899
L104070 75956
L104042 75984
L103986 76012
L103761 76012
" />
<path d="M104577 76265
L104520 76293
L104408 76293
L104352 76265
L104323 76209
L104323 75984
L104352 75928
L104408 75899
L104520 75899
L104577 75928
L104605 75984
L104605 76040
L104323 76096
" />
<path d="M104802 75899
L104942 76293
L105083 75899
" />
<path d="M105308 76237
L105336 76265
L105308 76293
L105280 76265
L105308 76237
L105308 76293
" />
<path d="M105308 75928
L105336 75956
L105308 75984
L105280 75956
L105308 75928
L105308 75984
" />
</g>
<g style="fill:#000000; fill-opacity:0.0; 
stroke:#000000; stroke-width:39.3701; stroke-opacity:1; 
stroke-linecap:round; stroke-linejoin:round;">
</g>
<g style="fill:#000000; fill-opacity:0.0; 
stroke:#000000; stroke-width:59.0551; stroke-opacity:1; 
stroke-linecap:round; stroke-linejoin:round;">
<path d="M70221 76265
L70305 76293
L70446 76293
L70502 76265
L70530 76237
L70559 76181
L70559 76124
L70530 76068
L70502 76040
L70446 76012
L70334 75984
L70277 75956
L70249 75928
L70221 75871
L70221 75815
L70249 75759
L70277 75731
L70334 75703
L70474 75703
L70559 75731
" />
<path d="M70812 76293
L70812 75899
" />
<path d="M70812 75703
L70784 75731
L70812 75759
L70840 75731
L70812 75703
L70812 75759
" />
<path d="M71037 75899
L71346 75899
L71037 76293
L71346 76293
" />
<path d="M71796 76265
L71740 76293
L71627 76293
L71571 76265
L71543 76209
L71543 75984
L71571 75928
L71627 75899
L71740 75899
L71796 75928
L71824 75984
L71824 76040
L71543 76096
" />
<path d="M72077 76237
L72105 76265
L72077 76293
L72049 76265
L72077 76237
L72077 76293
" />
<path d="M72077 75928
L72105 75956
L72077 75984
L72049 75956
L72077 75928
L72077 75984
" />
<path d="M72780 76124
L73061 76124
" />
<path d="M72724 76293
L72921 75703
L73118 76293
" />
<path d="M73568 75899
L73568 76293
" />
<path d="M73427 75674
L73286 76096
L73652 76096
" />
</g>
<g style="fill:#000000; fill-opacity:0.0; 
stroke:#000000; stroke-width:39.3701; stroke-opacity:1; 
stroke-linecap:round; stroke-linejoin:round;">
</g>
<g style="fill:#000000; fill-opacity:0.0; 
stroke:#000000; stroke-width:59.0551; stroke-opacity:1; 
stroke-linecap:round; stroke-linejoin:round;">
<path d="M103714 77395
L103714 76805
" />
<path d="M104248 77395
L104248 76805
" />
<path d="M104248 77367
L104192 77395
L104079 77395
L104023 77367
L103995 77339
L103967 77283
L103967 77114
L103995 77058
L104023 77030
L104079 77002
L104192 77002
L104248 77030
" />
<path d="M104529 77339
L104557 77367
L104529 77395
L104501 77367
L104529 77339
L104529 77395
" />
<path d="M104529 77030
L104557 77058
L104529 77086
L104501 77058
L104529 77030
L104529 77086
" />
<path d="M105570 77395
L105232 77395
" />
<path d="M105401 77395
L105401 76805
L105345 76889
L105289 76946
L105232 76974
" />
<path d="M106245 76777
L105739 77536
" />
<path d="M106751 77395
L106413 77395
" />
<path d="M106582 77395
L106582 76805
L106526 76889
L106470 76946
L106413 76974
" />
</g>
<g style="fill:#000000; fill-opacity:0.0; 
stroke:#000000; stroke-width:39.3701; stroke-opacity:1; 
stroke-linecap:round; stroke-linejoin:round;">
</g>
<g style="fill:#000000; fill-opacity:0.0; 
stroke:#000000; stroke-width:59.0551; stroke-opacity:1; 
stroke-linecap:round; stroke-linejoin:round;">
<path d="M69685 73821
L112205 73821
" />
</g>
<g style="fill:#000000; fill-opacity:0.0; 
stroke:#000000; stroke-width:39.3701; stroke-opacity:1; 
stroke-linecap:round; stroke-linejoin:round;">
</g>
<g style="fill:#000000; fill-opacity:0.0; 
stroke:#000000; stroke-width:157.48; stroke-opacity:1; 
stroke-linecap:round; stroke-linejoin:round;">
<path d="M70360 74099
L70810 74099
" />
<path d="M70486 74886
L70585 74099
" />
<path d="M70974 74886
L71039 74361
" />
<path d="M71072 74099
L71030 74136
L71063 74174
L71105 74136
L71072 74099
L71063 74174
" />
<path d="M71302 74361
L71602 74361
" />
<path d="M71447 74099
L71363 74774
L71391 74849
L71461 74886
L71536 74886
" />
<path d="M71911 74886
L71841 74849
L71813 74774
L71897 74099
" />
<path d="M72516 74849
L72436 74886
L72286 74886
L72216 74849
L72187 74774
L72225 74474
L72272 74399
L72352 74361
L72501 74361
L72572 74399
L72600 74474
L72591 74549
L72206 74624
" />
<path d="M72895 74811
L72928 74849
L72886 74886
L72853 74849
L72895 74811
L72886 74886
" />
<path d="M72947 74399
L72980 74436
L72937 74474
L72905 74436
L72947 74399
L72937 74474
" />
</g>
<g style="fill:#000000; fill-opacity:0.0; 
stroke:#000000; stroke-width:39.3701; stroke-opacity:1; 
stroke-linecap:round; stroke-linejoin:round;">
</g>
<g style="fill:#000000; fill-opacity:0.0; 
stroke:#000000; stroke-width:59.0551; stroke-opacity:1; 
stroke-linecap:round; stroke-linejoin:round;">
<path d="M70446 73070
L70249 73070
" />
<path d="M70249 73380
L70249 72789
L70530 72789
" />
<path d="M70755 73380
L70755 72986
" />
<path d="M70755 72789
L70727 72817
L70755 72845
L70784 72817
L70755 72789
L70755 72845
" />
<path d="M71121 73380
L71065 73352
L71037 73295
L71037 72789
" />
<path d="M71571 73352
L71515 73380
L71402 73380
L71346 73352
L71318 73295
L71318 73070
L71346 73014
L71402 72986
L71515 72986
L71571 73014
L71599 73070
L71599 73127
L71318 73183
" />
<path d="M71852 73323
L71880 73352
L71852 73380
L71824 73352
L71852 73323
L71852 73380
" />
<path d="M71852 73014
L71880 73042
L71852 73070
L71824 73042
L71852 73014
L71852 73070
" />
<path d="M72865 73380
L72583 73380
L72583 72789
" />
<path d="M73061 73070
L73258 73070
" />
<path d="M73343 73380
L73061 73380
L73061 72789
L73343 72789
" />
<path d="M73596 73380
L73596 72789
L73736 72789
L73821 72817
L73877 72874
L73905 72930
L73933 73042
L73933 73127
L73905 73239
L73877 73295
L73821 73352
L73736 73380
L73596 73380
" />
<path d="M74046 73436
L74496 73436
" />
<path d="M74889 73352
L74833 73380
L74721 73380
L74664 73352
L74636 73323
L74608 73267
L74608 73099
L74636 73042
L74664 73014
L74721 72986
L74833 72986
L74889 73014
" />
<path d="M75142 73380
L75142 72986
" />
<path d="M75142 72789
L75114 72817
L75142 72845
L75171 72817
L75142 72789
L75142 72845
" />
<path d="M75424 73380
L75424 72986
" />
<path d="M75424 73099
L75452 73042
L75480 73014
L75536 72986
L75592 72986
" />
<path d="M76042 73352
L75986 73380
L75874 73380
L75817 73352
L75789 73323
L75761 73267
L75761 73099
L75789 73042
L75817 73014
L75874 72986
L75986 72986
L76042 73014
" />
<path d="M76548 72986
L76548 73380
" />
<path d="M76295 72986
L76295 73295
L76323 73352
L76380 73380
L76464 73380
L76520 73352
L76548 73323
" />
<path d="M76830 73380
L76830 72986
" />
<path d="M76830 72789
L76802 72817
L76830 72845
L76858 72817
L76830 72789
L76830 72845
" />
<path d="M77027 72986
L77251 72986
" />
<path d="M77111 72789
L77111 73295
L77139 73352
L77195 73380
L77251 73380
" />
<path d="M77448 73323
L77476 73352
L77448 73380
L77420 73352
L77448 73323
L77448 73380
" />
<path d="M77730 73380
L77730 72789
" />
<path d="M77786 73155
L77955 73380
" />
<path d="M77955 72986
L77730 73211
" />
<path d="M78208 73380
L78208 72986
" />
<path d="M78208 72789
L78180 72817
L78208 72845
L78236 72817
L78208 72789
L78208 72845
" />
<path d="M78742 73352
L78686 73380
L78573 73380
L78517 73352
L78489 73323
L78461 73267
L78461 73099
L78489 73042
L78517 73014
L78573 72986
L78686 72986
L78742 73014
" />
<path d="M79248 73380
L79248 73070
L79220 73014
L79164 72986
L79051 72986
L78995 73014
" />
<path d="M79248 73352
L79192 73380
L79051 73380
L78995 73352
L78967 73295
L78967 73239
L78995 73183
L79051 73155
L79192 73155
L79248 73127
" />
<path d="M79782 73380
L79782 72789
" />
<path d="M79782 73352
L79726 73380
L79614 73380
L79557 73352
L79529 73323
L79501 73267
L79501 73099
L79529 73042
L79557 73014
L79614 72986
L79726 72986
L79782 73014
" />
<path d="M79923 73436
L80373 73436
" />
<path d="M80514 72986
L80514 73577
" />
<path d="M80514 73014
L80570 72986
L80682 72986
L80739 73014
L80767 73042
L80795 73099
L80795 73267
L80767 73323
L80739 73352
L80682 73380
L80570 73380
L80514 73352
" />
<path d="M81301 73352
L81245 73380
L81132 73380
L81076 73352
L81048 73323
L81020 73267
L81020 73099
L81048 73042
L81076 73014
L81132 72986
L81245 72986
L81301 73014
" />
<path d="M81554 73380
L81554 72789
" />
<path d="M81554 73014
L81610 72986
L81723 72986
L81779 73014
L81807 73042
L81835 73099
L81835 73267
L81807 73323
L81779 73352
L81723 73380
L81610 73380
L81554 73352
" />
</g>
<g style="fill:#000000; fill-opacity:0.0; 
stroke:#000000; stroke-width:39.3701; stroke-opacity:1; 
stroke-linecap:round; stroke-linejoin:round;">
</g>
<g style="fill:#000000; fill-opacity:0.0; 
stroke:#000000; stroke-width:59.0551; stroke-opacity:1; 
stroke-linecap:round; stroke-linejoin:round;">
<path d="M69685 71459
L112205 71459
" />
</g>
<g style="fill:#000000; fill-opacity:0.0; 
stroke:#000000; stroke-width:39.3701; stroke-opacity:1; 
stroke-linecap:round; stroke-linejoin:round;">
</g>
<g style="fill:#000000; fill-opacity:0.0; 
stroke:#000000; stroke-width:59.0551; stroke-opacity:1; 
stroke-linecap:round; stroke-linejoin:round;">
<path d="M70221 72289
L70305 72317
L70446 72317
L70502 72289
L70530 72260
L70559 72204
L70559 72148
L70530 72092
L70502 72064
L70446 72036
L70334 72007
L70277 71979
L70249 71951
L70221 71895
L70221 71839
L70249 71782
L70277 71754
L70334 71726
L70474 71726
L70559 71754
" />
<path d="M70812 72317
L70812 71726
" />
<path d="M71065 72317
L71065 72007
L71037 71951
L70980 71923
L70896 71923
L70840 71951
L70812 71979
" />
<path d="M71571 72289
L71515 72317
L71402 72317
L71346 72289
L71318 72232
L71318 72007
L71346 71951
L71402 71923
L71515 71923
L71571 71951
L71599 72007
L71599 72064
L71318 72120
" />
<path d="M72077 72289
L72021 72317
L71908 72317
L71852 72289
L71824 72232
L71824 72007
L71852 71951
L71908 71923
L72021 71923
L72077 71951
L72105 72007
L72105 72064
L71824 72120
" />
<path d="M72274 71923
L72499 71923
" />
<path d="M72358 71726
L72358 72232
L72386 72289
L72443 72317
L72499 72317
" />
<path d="M72696 72260
L72724 72289
L72696 72317
L72668 72289
L72696 72260
L72696 72317
" />
<path d="M72696 71951
L72724 71979
L72696 72007
L72668 71979
L72696 71951
L72696 72007
" />
</g>
<g style="fill:#000000; fill-opacity:0.0; 
stroke:#000000; stroke-width:39.3701; stroke-opacity:1; 
stroke-linecap:round; stroke-linejoin:round;">
</g>
<g style="fill:#000000; fill-opacity:0.0; 
stroke:#000000; stroke-width:59.0551; stroke-opacity:1; 
stroke-linecap:round; stroke-linejoin:round;">
<path d="M77559 75396
L77559 76577
" />
</g>
<g style="fill:#000000; fill-opacity:0.0; 
stroke:#000000; stroke-width:39.3701; stroke-opacity:1; 
stroke-linecap:round; stroke-linejoin:round;">
</g>
<g style="fill:#000000; fill-opacity:0.0; 
stroke:#000000; stroke-width:59.0551; stroke-opacity:1; 
stroke-linecap:round; stroke-linejoin:round;">
<path d="M102756 75396
L102756 77955
" />
</g>
<g style="fill:#848400; fill-opacity:0.0; 
stroke:#848400; stroke-width:59.0551; stroke-opacity:1; 
stroke-linecap:round; stroke-linejoin:round;">
</g>
<g style="fill:#848400; fill-opacity:1.0; 
stroke:#848400; stroke-width:0; stroke-opacity:1; 
stroke-linecap:round; stroke-linejoin:round;">
<circle cx="38189" cy="41000" r="314.961" /> 
</g>
<g style="fill:#848400; fill-opacity:1.0; 
stroke:#848400; stroke-width:39.3701; stroke-opacity:1; 
stroke-linecap:round; stroke-linejoin:round;">
</g>
<g style="fill:#848400; fill-opacity:1.0; 
stroke:#848400; stroke-width:629.921; stroke-opacity:1; 
stroke-linecap:round; stroke-linejoin:round;">
</g>
<g style="fill:#848400; fill-opacity:0.0; 
stroke:#848400; stroke-width:629.921; stroke-opacity:1; 
stroke-linecap:round; stroke-linejoin:round;">
<path d="M42188 41000
L42188 41000
" />
</g>
<g style="fill:#848400; fill-opacity:0.0; 
stroke:#848400; stroke-width:0; stroke-opacity:1; 
stroke-linecap:round; stroke-linejoin:round;">
</g>
<g style="fill:#848400; fill-opacity:1.0; 
stroke:#848400; stroke-width:0; stroke-opacity:1; 
stroke-linecap:round; stroke-linejoin:round;">
<polyline style="fill-rule:evenodd;"
points="40017,43268
40027,43269
40036,43271
40045,43275
40054,43279
40062,43284
40070,43290
40077,43296
40083,43303
40089,43311
40094,43319
40098,43328
40102,43337
40104,43346
40105,43356
40106,43366
40106,44035
40105,44045
40104,44054
40102,44064
40098,44073
40094,44081
40089,44090
40083,44097
40077,44105
40070,44111
40062,44117
40054,44122
40045,44126
40036,44129
40027,44131
40017,44133
40007,44133
39519,44133
39510,44133
39500,44131
39491,44129
39482,44126
39473,44122
39465,44117
39457,44111
39450,44105
39443,44097
39437,44090
39432,44081
39428,44073
39425,44064
39423,44054
39421,44045
39421,44035
39421,43366
39421,43356
39423,43346
39425,43337
39428,43328
39432,43319
39437,43311
39443,43303
39450,43296
39457,43290
39465,43284
39473,43279
39482,43275
39491,43271
39500,43269
39510,43268
39519,43267
40007,43267
40017,43268
" /> 
</g>
<g style="fill:#848400; fill-opacity:1.0; 
stroke:#848400; stroke-width:685.039; stroke-opacity:1; 
stroke-linecap:round; stroke-linejoin:round;">
</g>
<g style="fill:#848400; fill-opacity:0.0; 
stroke:#848400; stroke-width:685.039; stroke-opacity:1; 
stroke-linecap:round; stroke-linejoin:round;">
<path d="M40763 43610
L40763 43791
" />
</g>
<g style="fill:#848400; fill-opacity:1.0; 
stroke:#848400; stroke-width:0; stroke-opacity:1; 
stroke-linecap:round; stroke-linejoin:round;">
<circle cx="35826.8" cy="51181.1" r="787.402" /> 
</g>
<g style="fill:#848400; fill-opacity:1.0; 
stroke:#848400; stroke-width:39.3701; stroke-opacity:1; 
stroke-linecap:round; stroke-linejoin:round;">
</g>
<g style="fill:#848400; fill-opacity:1.0; 
stroke:#848400; stroke-width:0; stroke-opacity:1; 
stroke-linecap:round; stroke-linejoin:round;">
<circle cx="35826.8" cy="46456.7" r="787.402" /> 
</g>
<g style="fill:#848400; fill-opacity:1.0; 
stroke:#848400; stroke-width:39.3701; stroke-opacity:1; 
stroke-linecap:round; stroke-linejoin:round;">
</g>
<g style="fill:#848400; fill-opacity:1.0; 
stroke:#848400; stroke-width:0; stroke-opacity:1; 
stroke-linecap:round; stroke-linejoin:round;">
<circle cx="44881.9" cy="46456.7" r="787.402" /> 
</g>
<g style="fill:#848400; fill-opacity:1.0; 
stroke:#848400; stroke-width:39.3701; stroke-opacity:1; 
stroke-linecap:round; stroke-linejoin:round;">
</g>
<g style="fill:#848400; fill-opacity:1.0; 
stroke:#848400; stroke-width:0; stroke-opacity:1; 
stroke-linecap:round; stroke-linejoin:round;">
<circle cx="44881.9" cy="51181.1" r="787.402" /> 
</g>
<g style="fill:#848400; fill-opacity:1.0; 
stroke:#848400; stroke-width:39.3701; stroke-opacity:1; 
stroke-linecap:round; stroke-linejoin:round;">
</g>
<g style="fill:#848400; fill-opacity:1.0; 
stroke:#848400; stroke-width:0; stroke-opacity:1; 
stroke-linecap:round; stroke-linejoin:round;">
<circle cx="47244.1" cy="55118.1" r="984.252" /> 
</g>
<g style="fill:#848400; fill-opacity:1.0; 
stroke:#848400; stroke-width:39.3701; stroke-opacity:1; 
stroke-linecap:round; stroke-linejoin:round;">
</g>
<g style="fill:#848400; fill-opacity:1.0; 
stroke:#848400; stroke-width:0; stroke-opacity:1; 
stroke-linecap:round; stroke-linejoin:round;">
<circle cx="47244.1" cy="40551.2" r="984.252" /> 
</g>
<g style="fill:#848400; fill-opacity:1.0; 
stroke:#848400; stroke-width:39.3701; stroke-opacity:1; 
stroke-linecap:round; stroke-linejoin:round;">
</g>
<g style="fill:#848400; fill-opacity:1.0; 
stroke:#848400; stroke-width:0; stroke-opacity:1; 
stroke-linecap:round; stroke-linejoin:round;">
<circle cx="33464.6" cy="40551.2" r="984.252" /> 
</g>
<g style="fill:#848400; fill-opacity:1.0; 
stroke:#848400; stroke-width:39.3701; stroke-opacity:1; 
stroke-linecap:round; stroke-linejoin:round;">
</g>
<g style="fill:#848400; fill-opacity:1.0; 
stroke:#848400; stroke-width:0; stroke-opacity:1; 
stroke-linecap:round; stroke-linejoin:round;">
<circle cx="33464.6" cy="55118.1" r="984.252" /> 
</g>
<g style="fill:#848400; fill-opacity:1.0; 
stroke:#848400; stroke-width:39.3701; stroke-opacity:1; 
stroke-linecap:round; stroke-linejoin:round;">
</g>
<g style="fill:#C2C2C2; fill-opacity:1.0; 
stroke:#C2C2C2; stroke-width:39.3701; stroke-opacity:1; 
stroke-linecap:round; stroke-linejoin:round;">
</g>
<g style="fill:#C2C2C2; fill-opacity:1.0; 
stroke:#C2C2C2; stroke-width:0; stroke-opacity:1; 
stroke-linecap:round; stroke-linejoin:round;">
<circle cx="36000" cy="49000" r="314.961" /> 
</g>
<g style="fill:#C2C2C2; fill-opacity:1.0; 
stroke:#C2C2C2; stroke-width:39.3701; stroke-opacity:1; 
stroke-linecap:round; stroke-linejoin:round;">
</g>
<g style="fill:#C2C2C2; fill-opacity:1.0; 
stroke:#C2C2C2; stroke-width:0; stroke-opacity:1; 
stroke-linecap:round; stroke-linejoin:round;">
<circle cx="45000" cy="49000" r="314.961" /> 
</g>
<g style="fill:#C2C2C2; fill-opacity:1.0; 
stroke:#C2C2C2; stroke-width:39.3701; stroke-opacity:1; 
stroke-linecap:round; stroke-linejoin:round;">
</g>
<g style="fill:#C2C2C2; fill-opacity:1.0; 
stroke:#C2C2C2; stroke-width:0; stroke-opacity:1; 
stroke-linecap:round; stroke-linejoin:round;">
<circle cx="42500" cy="43500" r="314.961" /> 
</g>
<g style="fill:#C2C2C2; fill-opacity:1.0; 
stroke:#C2C2C2; stroke-width:39.3701; stroke-opacity:1; 
stroke-linecap:round; stroke-linejoin:round;">
</g>
<g style="fill:#FFFFFF; fill-opacity:1.0; 
stroke:#FFFFFF; stroke-width:39.3701; stroke-opacity:1; 
stroke-linecap:round; stroke-linejoin:round;">
</g>
<g style="fill:#FFFFFF; fill-opacity:1.0; 
stroke:#FFFFFF; stroke-width:0; stroke-opacity:1; 
stroke-linecap:round; stroke-linejoin:round;">
<circle cx="36000" cy="49000" r="157.48" /> 
</g>
<g style="fill:#FFFFFF; fill-opacity:1.0; 
stroke:#FFFFFF; stroke-width:39.3701; stroke-opacity:1; 
stroke-linecap:round; stroke-linejoin:round;">
</g>
<g style="fill:#FFFFFF; fill-opacity:1.0; 
stroke:#FFFFFF; stroke-width:0; stroke-opacity:1; 
stroke-linecap:round; stroke-linejoin:round;">
<circle cx="45000" cy="49000" r="157.48" /> 
</g>
<g style="fill:#FFFFFF; fill-opacity:1.0; 
stroke:#FFFFFF; stroke-width:39.3701; stroke-opacity:1; 
stroke-linecap:round; stroke-linejoin:round;">
</g>
<g style="fill:#FFFFFF; fill-opacity:1.0; 
stroke:#FFFFFF; stroke-width:0; stroke-opacity:1; 
stroke-linecap:round; stroke-linejoin:round;">
<circle cx="42500" cy="43500" r="157.48" /> 
</g>
<g style="fill:#FFFFFF; fill-opacity:1.0; 
stroke:#FFFFFF; stroke-width:39.3701; stroke-opacity:1; 
stroke-linecap:round; stroke-linejoin:round;">
</g>
<g style="fill:#FFFFFF; fill-opacity:1.0; 
stroke:#FFFFFF; stroke-width:0; stroke-opacity:1; 
stroke-linecap:round; stroke-linejoin:round;">
<circle cx="38189" cy="41000" r="157.48" /> 
</g>
<g style="fill:#FFFFFF; fill-opacity:1.0; 
stroke:#FFFFFF; stroke-width:39.3701; stroke-opacity:1; 
stroke-linecap:round; stroke-linejoin:round;">
</g>
<g style="fill:#FFFFFF; fill-opacity:1.0; 
stroke:#FFFFFF; stroke-width:0; stroke-opacity:1; 
stroke-linecap:round; stroke-linejoin:round;">
<circle cx="42189" cy="41000" r="157.48" /> 
</g>
<g style="fill:#FFFFFF; fill-opacity:1.0; 
stroke:#FFFFFF; stroke-width:39.3701; stroke-opacity:1; 
stroke-linecap:round; stroke-linejoin:round;">
</g>
<g style="fill:#FFFFFF; fill-opacity:1.0; 
stroke:#FFFFFF; stroke-width:0; stroke-opacity:1; 
stroke-linecap:round; stroke-linejoin:round;">
<circle cx="39763.8" cy="43700.8" r="236.22" /> 
</g>
<g style="fill:#FFFFFF; fill-opacity:1.0; 
stroke:#FFFFFF; stroke-width:39.3701; stroke-opacity:1; 
stroke-linecap:round; stroke-linejoin:round;">
</g>
<g style="fill:#FFFFFF; fill-opacity:1.0; 
stroke:#FFFFFF; stroke-width:0; stroke-opacity:1; 
stroke-linecap:round; stroke-linejoin:round;">
<circle cx="40763.8" cy="43700.8" r="236.22" /> 
</g>
<g style="fill:#FFFFFF; fill-opacity:1.0; 
stroke:#FFFFFF; stroke-width:39.3701; stroke-opacity:1; 
stroke-linecap:round; stroke-linejoin:round;">
</g>
<g style="fill:#FFFFFF; fill-opacity:1.0; 
stroke:#FFFFFF; stroke-width:0; stroke-opacity:1; 
stroke-linecap:round; stroke-linejoin:round;">
<circle cx="35826.8" cy="51181.1" r="492.126" /> 
</g>
<g style="fill:#FFFFFF; fill-opacity:1.0; 
stroke:#FFFFFF; stroke-width:39.3701; stroke-opacity:1; 
stroke-linecap:round; stroke-linejoin:round;">
</g>
<g style="fill:#FFFFFF; fill-opacity:1.0; 
stroke:#FFFFFF; stroke-width:0; stroke-opacity:1; 
stroke-linecap:round; stroke-linejoin:round;">
<circle cx="35826.8" cy="46456.7" r="492.126" /> 
</g>
<g style="fill:#FFFFFF; fill-opacity:1.0; 
stroke:#FFFFFF; stroke-width:39.3701; stroke-opacity:1; 
stroke-linecap:round; stroke-linejoin:round;">
</g>
<g style="fill:#FFFFFF; fill-opacity:1.0; 
stroke:#FFFFFF; stroke-width:0; stroke-opacity:1; 
stroke-linecap:round; stroke-linejoin:round;">
<circle cx="44881.9" cy="46456.7" r="492.126" /> 
</g>
<g style="fill:#FFFFFF; fill-opacity:1.0; 
stroke:#FFFFFF; stroke-width:39.3701; stroke-opacity:1; 
stroke-linecap:round; stroke-linejoin:round;">
</g>
<g style="fill:#FFFFFF; fill-opacity:1.0; 
stroke:#FFFFFF; stroke-width:0; stroke-opacity:1; 
stroke-linecap:round; stroke-linejoin:round;">
<circle cx="44881.9" cy="51181.1" r="492.126" /> 
</g>
<g style="fill:#FFFFFF; fill-opacity:1.0; 
stroke:#FFFFFF; stroke-width:39.3701; stroke-opacity:1; 
stroke-linecap:round; stroke-linejoin:round;">
</g>
<g style="fill:#FFFFFF; fill-opacity:1.0; 
stroke:#FFFFFF; stroke-width:0; stroke-opacity:1; 
stroke-linecap:round; stroke-linejoin:round;">
<circle cx="47244.1" cy="55118.1" r="492.126" /> 
</g>
<g style="fill:#FFFFFF; fill-opacity:1.0; 
stroke:#FFFFFF; stroke-width:39.3701; stroke-opacity:1; 
stroke-linecap:round; stroke-linejoin:round;">
</g>
<g style="fill:#FFFFFF; fill-opacity:1.0; 
stroke:#FFFFFF; stroke-width:0; stroke-opacity:1; 
stroke-linecap:round; stroke-linejoin:round;">
<circle cx="47244.1" cy="40551.2" r="492.126" /> 
</g>
<g style="fill:#FFFFFF; fill-opacity:1.0; 
stroke:#FFFFFF; stroke-width:39.3701; stroke-opacity:1; 
stroke-linecap:round; stroke-linejoin:round;">
</g>
<g style="fill:#FFFFFF; fill-opacity:1.0; 
stroke:#FFFFFF; stroke-width:0; stroke-opacity:1; 
stroke-linecap:round; stroke-linejoin:round;">
<circle cx="33464.6" cy="40551.2" r="492.126" /> 
</g>
<g style="fill:#FFFFFF; fill-opacity:1.0; 
stroke:#FFFFFF; stroke-width:39.3701; stroke-opacity:1; 
stroke-linecap:round; stroke-linejoin:round;">
</g>
<g style="fill:#FFFFFF; fill-opacity:1.0; 
stroke:#FFFFFF; stroke-width:0; stroke-opacity:1; 
stroke-linecap:round; stroke-linejoin:round;">
<circle cx="33464.6" cy="55118.1" r="492.126" /> 
</g>
<g style="fill:#FFFFFF; fill-opacity:1.0; 
stroke:#FFFFFF; stroke-width:39.3701; stroke-opacity:1; 
stroke-linecap:round; stroke-linejoin:round;">
</g>
<g style="fill:#000000; fill-opacity:1.0; 
stroke:#000000; stroke-width:39.3701; stroke-opacity:1; 
stroke-linecap:round; stroke-linejoin:round;">
</g>
<g style="fill:#840000; fill-opacity:1.0; 
stroke:#840000; stroke-width:39.3701; stroke-opacity:1; 
stroke-linecap:round; stroke-linejoin:round;">
</g>
<g style="fill:#840000; fill-opacity:1.0; 
stroke:#840000; stroke-width:0; stroke-opacity:1; 
stroke-linecap:round; stroke-linejoin:round;">
<polyline style="fill-rule:evenodd;"
points="34885,48488
34885,49511
34295,49511
34295,48488
34885,48488
" /> 
<polyline style="fill-rule:evenodd;"
points="33704,48488
33704,49511
33114,49511
33114,48488
33704,48488
" /> 
<polyline style="fill-rule:evenodd;"
points="33704,46488
33704,47511
33114,47511
33114,46488
33704,46488
" /> 
<polyline style="fill-rule:evenodd;"
points="34885,46488
34885,47511
34295,47511
34295,46488
34885,46488
" /> 
<polyline style="fill-rule:evenodd;"
points="46114,49511
46114,48488
46704,48488
46704,49511
46114,49511
" /> 
<polyline style="fill-rule:evenodd;"
points="47295,49511
47295,48488
47885,48488
47885,49511
47295,49511
" /> 
</g>
<g style="fill:#848400; fill-opacity:1.0; 
stroke:#848400; stroke-width:0; stroke-opacity:1; 
stroke-linecap:round; stroke-linejoin:round;">
<circle cx="38189" cy="41000" r="314.961" /> 
</g>
<g style="fill:#848400; fill-opacity:1.0; 
stroke:#848400; stroke-width:39.3701; stroke-opacity:1; 
stroke-linecap:round; stroke-linejoin:round;">
</g>
<g style="fill:#848400; fill-opacity:1.0; 
stroke:#848400; stroke-width:629.921; stroke-opacity:1; 
stroke-linecap:round; stroke-linejoin:round;">
</g>
<g style="fill:#848400; fill-opacity:0.0; 
stroke:#848400; stroke-width:629.921; stroke-opacity:1; 
stroke-linecap:round; stroke-linejoin:round;">
<path d="M42188 41000
L42188 41000
" />
</g>
<g style="fill:#840000; fill-opacity:0.0; 
stroke:#840000; stroke-width:629.921; stroke-opacity:1; 
stroke-linecap:round; stroke-linejoin:round;">
</g>
<g style="fill:#840000; fill-opacity:0.0; 
stroke:#840000; stroke-width:0; stroke-opacity:1; 
stroke-linecap:round; stroke-linejoin:round;">
</g>
<g style="fill:#840000; fill-opacity:1.0; 
stroke:#840000; stroke-width:0; stroke-opacity:1; 
stroke-linecap:round; stroke-linejoin:round;">
<polyline style="fill-rule:evenodd;"
points="47295,47511
47295,46488
47885,46488
47885,47511
47295,47511
" /> 
<polyline style="fill-rule:evenodd;"
points="46114,47511
46114,46488
46704,46488
46704,47511
46114,47511
" /> 
<polyline style="fill-rule:evenodd;"
points="34885,52637
34885,53661
34295,53661
34295,52637
34885,52637
" /> 
<polyline style="fill-rule:evenodd;"
points="33704,52637
33704,53661
33114,53661
33114,52637
33704,52637
" /> 
</g>
<g style="fill:#848400; fill-opacity:1.0; 
stroke:#848400; stroke-width:0; stroke-opacity:1; 
stroke-linecap:round; stroke-linejoin:round;">
<polyline style="fill-rule:evenodd;"
points="40017,43268
40027,43269
40036,43271
40045,43275
40054,43279
40062,43284
40070,43290
40077,43296
40083,43303
40089,43311
40094,43319
40098,43328
40102,43337
40104,43346
40105,43356
40106,43366
40106,44035
40105,44045
40104,44054
40102,44064
40098,44073
40094,44081
40089,44090
40083,44097
40077,44105
40070,44111
40062,44117
40054,44122
40045,44126
40036,44129
40027,44131
40017,44133
40007,44133
39519,44133
39510,44133
39500,44131
39491,44129
39482,44126
39473,44122
39465,44117
39457,44111
39450,44105
39443,44097
39437,44090
39432,44081
39428,44073
39425,44064
39423,44054
39421,44045
39421,44035
39421,43366
39421,43356
39423,43346
39425,43337
39428,43328
39432,43319
39437,43311
39443,43303
39450,43296
39457,43290
39465,43284
39473,43279
39482,43275
39491,43271
39500,43269
39510,43268
39519,43267
40007,43267
40017,43268
" /> 
</g>
<g style="fill:#848400; fill-opacity:1.0; 
stroke:#848400; stroke-width:685.039; stroke-opacity:1; 
stroke-linecap:round; stroke-linejoin:round;">
</g>
<g style="fill:#848400; fill-opacity:0.0; 
stroke:#848400; stroke-width:685.039; stroke-opacity:1; 
stroke-linecap:round; stroke-linejoin:round;">
<path d="M40763 43610
L40763 43791
" />
</g>
<g style="fill:#840000; fill-opacity:0.0; 
stroke:#840000; stroke-width:685.039; stroke-opacity:1; 
stroke-linecap:round; stroke-linejoin:round;">
</g>
<g style="fill:#840000; fill-opacity:0.0; 
stroke:#840000; stroke-width:0; stroke-opacity:1; 
stroke-linecap:round; stroke-linejoin:round;">
</g>
<g style="fill:#840000; fill-opacity:1.0; 
stroke:#840000; stroke-width:0; stroke-opacity:1; 
stroke-linecap:round; stroke-linejoin:round;">
<polyline style="fill-rule:evenodd;"
points="47295,53511
47295,52488
47885,52488
47885,53511
47295,53511
" /> 
<polyline style="fill-rule:evenodd;"
points="46114,53511
46114,52488
46704,52488
46704,53511
46114,53511
" /> 
</g>
<g style="fill:#848400; fill-opacity:1.0; 
stroke:#848400; stroke-width:0; stroke-opacity:1; 
stroke-linecap:round; stroke-linejoin:round;">
<circle cx="35826.8" cy="51181.1" r="787.402" /> 
</g>
<g style="fill:#848400; fill-opacity:1.0; 
stroke:#848400; stroke-width:39.3701; stroke-opacity:1; 
stroke-linecap:round; stroke-linejoin:round;">
</g>
<g style="fill:#848400; fill-opacity:1.0; 
stroke:#848400; stroke-width:0; stroke-opacity:1; 
stroke-linecap:round; stroke-linejoin:round;">
<circle cx="35826.8" cy="46456.7" r="787.402" /> 
</g>
<g style="fill:#848400; fill-opacity:1.0; 
stroke:#848400; stroke-width:39.3701; stroke-opacity:1; 
stroke-linecap:round; stroke-linejoin:round;">
</g>
<g style="fill:#848400; fill-opacity:1.0; 
stroke:#848400; stroke-width:0; stroke-opacity:1; 
stroke-linecap:round; stroke-linejoin:round;">
<circle cx="44881.9" cy="46456.7" r="787.402" /> 
</g>
<g style="fill:#848400; fill-opacity:1.0; 
stroke:#848400; stroke-width:39.3701; stroke-opacity:1; 
stroke-linecap:round; stroke-linejoin:round;">
</g>
<g style="fill:#848400; fill-opacity:1.0; 
stroke:#848400; stroke-width:0; stroke-opacity:1; 
stroke-linecap:round; stroke-linejoin:round;">
<circle cx="44881.9" cy="51181.1" r="787.402" /> 
</g>
<g style="fill:#848400; fill-opacity:1.0; 
stroke:#848400; stroke-width:39.3701; stroke-opacity:1; 
stroke-linecap:round; stroke-linejoin:round;">
</g>
<g style="fill:#848400; fill-opacity:1.0; 
stroke:#848400; stroke-width:0; stroke-opacity:1; 
stroke-linecap:round; stroke-linejoin:round;">
<circle cx="47244.1" cy="55118.1" r="984.252" /> 
</g>
<g style="fill:#848400; fill-opacity:1.0; 
stroke:#848400; stroke-width:39.3701; stroke-opacity:1; 
stroke-linecap:round; stroke-linejoin:round;">
</g>
<g style="fill:#848400; fill-opacity:1.0; 
stroke:#848400; stroke-width:0; stroke-opacity:1; 
stroke-linecap:round; stroke-linejoin:round;">
<circle cx="47244.1" cy="40551.2" r="984.252" /> 
</g>
<g style="fill:#848400; fill-opacity:1.0; 
stroke:#848400; stroke-width:39.3701; stroke-opacity:1; 
stroke-linecap:round; stroke-linejoin:round;">
</g>
<g style="fill:#848400; fill-opacity:1.0; 
stroke:#848400; stroke-width:0; stroke-opacity:1; 
stroke-linecap:round; stroke-linejoin:round;">
<circle cx="33464.6" cy="40551.2" r="984.252" /> 
</g>
<g style="fill:#848400; fill-opacity:1.0; 
stroke:#848400; stroke-width:39.3701; stroke-opacity:1; 
stroke-linecap:round; stroke-linejoin:round;">
</g>
<g style="fill:#848400; fill-opacity:1.0; 
stroke:#848400; stroke-width:0; stroke-opacity:1; 
stroke-linecap:round; stroke-linejoin:round;">
<circle cx="33464.6" cy="55118.1" r="984.252" /> 
</g>
<g style="fill:#848400; fill-opacity:1.0; 
stroke:#848400; stroke-width:39.3701; stroke-opacity:1; 
stroke-linecap:round; stroke-linejoin:round;">
</g>
<g style="fill:#840000; fill-opacity:1.0; 
stroke:#840000; stroke-width:39.3701; stroke-opacity:1; 
stroke-linecap:round; stroke-linejoin:round;">
</g>
<g style="fill:#840000; fill-opacity:1.0; 
stroke:#840000; stroke-width:0; stroke-opacity:1; 
stroke-linecap:round; stroke-linejoin:round;">
<polyline style="fill-rule:evenodd;"
points="46114,51511
46114,50488
46704,50488
46704,51511
46114,51511
" /> 
<polyline style="fill-rule:evenodd;"
points="47295,51511
47295,50488
47885,50488
47885,51511
47295,51511
" /> 
<polyline style="fill-rule:evenodd;"
points="34885,50488
34885,51511
34295,51511
34295,50488
34885,50488
" /> 
<polyline style="fill-rule:evenodd;"
points="33704,50488
33704,51511
33114,51511
33114,50488
33704,50488
" /> 
</g>
<g style="fill:#C2C2C2; fill-opacity:1.0; 
stroke:#C2C2C2; stroke-width:0; stroke-opacity:1; 
stroke-linecap:round; stroke-linejoin:round;">
<circle cx="36000" cy="49000" r="314.961" /> 
</g>
<g style="fill:#C2C2C2; fill-opacity:1.0; 
stroke:#C2C2C2; stroke-width:39.3701; stroke-opacity:1; 
stroke-linecap:round; stroke-linejoin:round;">
</g>
<g style="fill:#C2C2C2; fill-opacity:1.0; 
stroke:#C2C2C2; stroke-width:0; stroke-opacity:1; 
stroke-linecap:round; stroke-linejoin:round;">
<circle cx="45000" cy="49000" r="314.961" /> 
</g>
<g style="fill:#C2C2C2; fill-opacity:1.0; 
stroke:#C2C2C2; stroke-width:39.3701; stroke-opacity:1; 
stroke-linecap:round; stroke-linejoin:round;">
</g>
<g style="fill:#C2C2C2; fill-opacity:1.0; 
stroke:#C2C2C2; stroke-width:0; stroke-opacity:1; 
stroke-linecap:round; stroke-linejoin:round;">
<circle cx="42500" cy="43500" r="314.961" /> 
</g>
<g style="fill:#C2C2C2; fill-opacity:1.0; 
stroke:#C2C2C2; stroke-width:39.3701; stroke-opacity:1; 
stroke-linecap:round; stroke-linejoin:round;">
</g>
<g style="fill:#840000; fill-opacity:1.0; 
stroke:#840000; stroke-width:39.3701; stroke-opacity:1; 
stroke-linecap:round; stroke-linejoin:round;">
</g>
<g style="fill:#840000; fill-opacity:1.0; 
stroke:#840000; stroke-width:196.85; stroke-opacity:1; 
stroke-linecap:round; stroke-linejoin:round;">
</g>
<g style="fill:#840000; fill-opacity:0.0; 
stroke:#840000; stroke-width:196.85; stroke-opacity:1; 
stroke-linecap:round; stroke-linejoin:round;">
<path d="M42000 41000
L42188 41000
" />
<path d="M39763 43700
L39763 43236
" />
</g>
<g style="fill:#840000; fill-opacity:0.0; 
stroke:#840000; stroke-width:393.701; stroke-opacity:1; 
stroke-linecap:round; stroke-linejoin:round;">
<path d="M39763 43236
L42000 41000
" />
<path d="M34590 49000
L36000 49000
" />
<path d="M45181 48818
L45000 49000
" />
<path d="M45181 48818
L46409 48818
" />
<path d="M40763 43700
L42299 43700
" />
<path d="M42299 43700
L42500 43500
" />
<path d="M34590 53149
L34590 51000
" />
<path d="M34590 51000
L34590 47000
" />
<path d="M46409 47000
L46409 53000
" />
<path d="M47590 48818
L47590 53000
" />
<path d="M47590 44590
L47590 48818
" />
<path d="M43188 40188
L47590 44590
" />
<path d="M38188 41000
L39000 40188
" />
<path d="M39000 40188
L43188 40188
" />
<path d="M33409 53149
L33409 47000
" />
<path d="M33409 45779
L38188 41000
" />
<path d="M33409 47000
L33409 45779
" />
</g>
<g style="fill:#FFFFFF; fill-opacity:0.0; 
stroke:#FFFFFF; stroke-width:393.701; stroke-opacity:1; 
stroke-linecap:round; stroke-linejoin:round;">
</g>
<g style="fill:#FFFFFF; fill-opacity:1.0; 
stroke:#FFFFFF; stroke-width:0; stroke-opacity:1; 
stroke-linecap:round; stroke-linejoin:round;">
<circle cx="36000" cy="49000" r="157.48" /> 
</g>
<g style="fill:#FFFFFF; fill-opacity:1.0; 
stroke:#FFFFFF; stroke-width:39.3701; stroke-opacity:1; 
stroke-linecap:round; stroke-linejoin:round;">
</g>
<g style="fill:#FFFFFF; fill-opacity:1.0; 
stroke:#FFFFFF; stroke-width:0; stroke-opacity:1; 
stroke-linecap:round; stroke-linejoin:round;">
<circle cx="45000" cy="49000" r="157.48" /> 
</g>
<g style="fill:#FFFFFF; fill-opacity:1.0; 
stroke:#FFFFFF; stroke-width:39.3701; stroke-opacity:1; 
stroke-linecap:round; stroke-linejoin:round;">
</g>
<g style="fill:#FFFFFF; fill-opacity:1.0; 
stroke:#FFFFFF; stroke-width:0; stroke-opacity:1; 
stroke-linecap:round; stroke-linejoin:round;">
<circle cx="42500" cy="43500" r="157.48" /> 
</g>
<g style="fill:#FFFFFF; fill-opacity:1.0; 
stroke:#FFFFFF; stroke-width:39.3701; stroke-opacity:1; 
stroke-linecap:round; stroke-linejoin:round;">
</g>
<g style="fill:#FFFFFF; fill-opacity:1.0; 
stroke:#FFFFFF; stroke-width:0; stroke-opacity:1; 
stroke-linecap:round; stroke-linejoin:round;">
<circle cx="38189" cy="41000" r="157.48" /> 
</g>
<g style="fill:#FFFFFF; fill-opacity:1.0; 
stroke:#FFFFFF; stroke-width:39.3701; stroke-opacity:1; 
stroke-linecap:round; stroke-linejoin:round;">
</g>
<g style="fill:#FFFFFF; fill-opacity:1.0; 
stroke:#FFFFFF; stroke-width:0; stroke-opacity:1; 
stroke-linecap:round; stroke-linejoin:round;">
<circle cx="42189" cy="41000" r="157.48" /> 
</g>
<g style="fill:#FFFFFF; fill-opacity:1.0; 
stroke:#FFFFFF; stroke-width:39.3701; stroke-opacity:1; 
stroke-linecap:round; stroke-linejoin:round;">
</g>
<g style="fill:#FFFFFF; fill-opacity:1.0; 
stroke:#FFFFFF; stroke-width:0; stroke-opacity:1; 
stroke-linecap:round; stroke-linejoin:round;">
<circle cx="39763.8" cy="43700.8" r="236.22" /> 
</g>
<g style="fill:#FFFFFF; fill-opacity:1.0; 
stroke:#FFFFFF; stroke-width:39.3701; stroke-opacity:1; 
stroke-linecap:round; stroke-linejoin:round;">
</g>
<g style="fill:#FFFFFF; fill-opacity:1.0; 
stroke:#FFFFFF; stroke-width:0; stroke-opacity:1; 
stroke-linecap:round; stroke-linejoin:round;">
<circle cx="40763.8" cy="43700.8" r="236.22" /> 
</g>
<g style="fill:#FFFFFF; fill-opacity:1.0; 
stroke:#FFFFFF; stroke-width:39.3701; stroke-opacity:1; 
stroke-linecap:round; stroke-linejoin:round;">
</g>
<g style="fill:#FFFFFF; fill-opacity:1.0; 
stroke:#FFFFFF; stroke-width:0; stroke-opacity:1; 
stroke-linecap:round; stroke-linejoin:round;">
<circle cx="35826.8" cy="51181.1" r="492.126" /> 
</g>
<g style="fill:#FFFFFF; fill-opacity:1.0; 
stroke:#FFFFFF; stroke-width:39.3701; stroke-opacity:1; 
stroke-linecap:round; stroke-linejoin:round;">
</g>
<g style="fill:#FFFFFF; fill-opacity:1.0; 
stroke:#FFFFFF; stroke-width:0; stroke-opacity:1; 
stroke-linecap:round; stroke-linejoin:round;">
<circle cx="35826.8" cy="46456.7" r="492.126" /> 
</g>
<g style="fill:#FFFFFF; fill-opacity:1.0; 
stroke:#FFFFFF; stroke-width:39.3701; stroke-opacity:1; 
stroke-linecap:round; stroke-linejoin:round;">
</g>
<g style="fill:#FFFFFF; fill-opacity:1.0; 
stroke:#FFFFFF; stroke-width:0; stroke-opacity:1; 
stroke-linecap:round; stroke-linejoin:round;">
<circle cx="44881.9" cy="46456.7" r="492.126" /> 
</g>
<g style="fill:#FFFFFF; fill-opacity:1.0; 
stroke:#FFFFFF; stroke-width:39.3701; stroke-opacity:1; 
stroke-linecap:round; stroke-linejoin:round;">
</g>
<g style="fill:#FFFFFF; fill-opacity:1.0; 
stroke:#FFFFFF; stroke-width:0; stroke-opacity:1; 
stroke-linecap:round; stroke-linejoin:round;">
<circle cx="44881.9" cy="51181.1" r="492.126" /> 
</g>
<g style="fill:#FFFFFF; fill-opacity:1.0; 
stroke:#FFFFFF; stroke-width:39.3701; stroke-opacity:1; 
stroke-linecap:round; stroke-linejoin:round;">
</g>
<g style="fill:#FFFFFF; fill-opacity:1.0; 
stroke:#FFFFFF; stroke-width:0; stroke-opacity:1; 
stroke-linecap:round; stroke-linejoin:round;">
<circle cx="47244.1" cy="55118.1" r="492.126" /> 
</g>
<g style="fill:#FFFFFF; fill-opacity:1.0; 
stroke:#FFFFFF; stroke-width:39.3701; stroke-opacity:1; 
stroke-linecap:round; stroke-linejoin:round;">
</g>
<g style="fill:#FFFFFF; fill-opacity:1.0; 
stroke:#FFFFFF; stroke-width:0; stroke-opacity:1; 
stroke-linecap:round; stroke-linejoin:round;">
<circle cx="47244.1" cy="40551.2" r="492.126" /> 
</g>
<g style="fill:#FFFFFF; fill-opacity:1.0; 
stroke:#FFFFFF; stroke-width:39.3701; stroke-opacity:1; 
stroke-linecap:round; stroke-linejoin:round;">
</g>
<g style="fill:#FFFFFF; fill-opacity:1.0; 
stroke:#FFFFFF; stroke-width:0; stroke-opacity:1; 
stroke-linecap:round; stroke-linejoin:round;">
<circle cx="33464.6" cy="40551.2" r="492.126" /> 
</g>
<g style="fill:#FFFFFF; fill-opacity:1.0; 
stroke:#FFFFFF; stroke-width:39.3701; stroke-opacity:1; 
stroke-linecap:round; stroke-linejoin:round;">
</g>
<g style="fill:#FFFFFF; fill-opacity:1.0; 
stroke:#FFFFFF; stroke-width:0; stroke-opacity:1; 
stroke-linecap:round; stroke-linejoin:round;">
<circle cx="33464.6" cy="55118.1" r="492.126" /> 
</g>
<g style="fill:#FFFFFF; fill-opacity:1.0; 
stroke:#FFFFFF; stroke-width:39.3701; stroke-opacity:1; 
stroke-linecap:round; stroke-linejoin:round;">
</g>
<g style="fill:#000000; fill-opacity:1.0; 
stroke:#000000; stroke-width:39.3701; stroke-opacity:1; 
stroke-linecap:round; stroke-linejoin:round;">
</g>
<g style="fill:#008484; fill-opacity:1.0; 
stroke:#008484; stroke-width:39.3701; stroke-opacity:1; 
stroke-linecap:round; stroke-linejoin:round;">
</g>
<g style="fill:#008484; fill-opacity:0.0; 
stroke:#008484; stroke-width:39.3701; stroke-opacity:1; 
stroke-linecap:round; stroke-linejoin:round;">
</g>
<g style="fill:#008484; fill-opacity:0.0; 
stroke:#008484; stroke-width:49.2126; stroke-opacity:1; 
stroke-linecap:round; stroke-linejoin:round;">
<path d="M42054 42407
L42035 42416
L41998 42416
L41979 42407
L41970 42398
L41961 42379
L41961 42323
L41970 42304
L41979 42294
L41998 42285
L42035 42285
L42054 42294
" />
<path d="M42167 42416
L42148 42407
L42139 42398
L42129 42379
L42129 42323
L42139 42304
L42148 42294
L42167 42285
L42195 42285
L42214 42294
L42223 42304
L42232 42323
L42232 42379
L42223 42398
L42214 42407
L42195 42416
L42167 42416
" />
<path d="M42317 42285
L42317 42416
" />
<path d="M42317 42304
L42326 42294
L42345 42285
L42373 42285
L42392 42294
L42401 42313
L42401 42416
" />
<path d="M42495 42285
L42495 42416
" />
<path d="M42495 42304
L42504 42294
L42523 42285
L42551 42285
L42570 42294
L42579 42313
L42579 42416
" />
<path d="M42748 42407
L42729 42416
L42692 42416
L42673 42407
L42664 42388
L42664 42313
L42673 42294
L42692 42285
L42729 42285
L42748 42294
L42757 42313
L42757 42332
L42664 42351
" />
<path d="M42926 42407
L42907 42416
L42870 42416
L42851 42407
L42842 42398
L42832 42379
L42832 42323
L42842 42304
L42851 42294
L42870 42285
L42907 42285
L42926 42294
" />
<path d="M42982 42285
L43057 42285
" />
<path d="M43010 42219
L43010 42388
L43020 42407
L43038 42416
L43057 42416
" />
<path d="M41792 42630
L41867 42630
" />
<path d="M41820 42564
L41820 42733
L41829 42751
L41848 42761
L41867 42761
" />
<path d="M41961 42761
L41942 42751
L41932 42742
L41923 42723
L41923 42667
L41932 42648
L41942 42639
L41961 42630
L41989 42630
L42007 42639
L42017 42648
L42026 42667
L42026 42723
L42017 42742
L42007 42751
L41989 42761
L41961 42761
" />
<path d="M42345 42630
L42345 42789
L42335 42808
L42326 42817
L42307 42826
L42279 42826
L42260 42817
" />
<path d="M42345 42751
L42326 42761
L42289 42761
L42270 42751
L42260 42742
L42251 42723
L42251 42667
L42260 42648
L42270 42639
L42289 42630
L42326 42630
L42345 42639
" />
<path d="M42439 42761
L42439 42630
" />
<path d="M42439 42667
L42448 42648
L42457 42639
L42476 42630
L42495 42630
" />
<path d="M42589 42761
L42570 42751
L42560 42742
L42551 42723
L42551 42667
L42560 42648
L42570 42639
L42589 42630
L42617 42630
L42635 42639
L42645 42648
L42654 42667
L42654 42723
L42645 42742
L42635 42751
L42617 42761
L42589 42761
" />
<path d="M42823 42630
L42823 42761
" />
<path d="M42739 42630
L42739 42733
L42748 42751
L42767 42761
L42795 42761
L42814 42751
L42823 42742
" />
<path d="M42917 42630
L42917 42761
" />
<path d="M42917 42648
L42926 42639
L42945 42630
L42973 42630
L42992 42639
L43001 42658
L43001 42761
" />
<path d="M43179 42761
L43179 42564
" />
<path d="M43179 42751
L43160 42761
L43123 42761
L43104 42751
L43095 42742
L43085 42723
L43085 42667
L43095 42648
L43104 42639
L43123 42630
L43160 42630
L43179 42639
" />
</g>
<g style="fill:#008484; fill-opacity:0.0; 
stroke:#008484; stroke-width:98.4252; stroke-opacity:1; 
stroke-linecap:round; stroke-linejoin:round;">
<path d="M39229 45289
L39229 45552
" />
<path d="M39135 45139
L39041 45420
L39285 45420
" />
<path d="M39435 45514
L39454 45533
L39435 45552
L39416 45533
L39435 45514
L39435 45552
" />
<path d="M39810 45158
L39623 45158
L39604 45345
L39623 45327
L39660 45308
L39754 45308
L39791 45327
L39810 45345
L39829 45383
L39829 45477
L39810 45514
L39791 45533
L39754 45552
L39660 45552
L39623 45533
L39604 45514
" />
<path d="M39941 45158
L40073 45552
L40204 45158
" />
<path d="M40841 45177
L40804 45158
L40748 45158
L40691 45177
L40654 45214
L40635 45252
L40616 45327
L40616 45383
L40635 45458
L40654 45495
L40691 45533
L40748 45552
L40785 45552
L40841 45533
L40860 45514
L40860 45383
L40785 45383
" />
<path d="M41029 45552
L41029 45158
L41254 45552
L41254 45158
" />
<path d="M41441 45552
L41441 45158
L41535 45158
L41591 45177
L41629 45214
L41647 45252
L41666 45327
L41666 45383
L41647 45458
L41629 45495
L41591 45533
L41535 45552
L41441 45552
" />
</g>
<g style="fill:#008484; fill-opacity:0.0; 
stroke:#008484; stroke-width:47.2441; stroke-opacity:1; 
stroke-linecap:round; stroke-linejoin:round;">
<path d="M33114 48370
L34944 48370
" />
<path d="M33114 49629
L34944 49629
" />
<path d="M34944 49629
L34944 49314
" />
<path d="M34944 47629
L34944 47314
" />
<path d="M33114 47629
L34944 47629
" />
<path d="M33114 46370
L34944 46370
" />
<path d="M47885 49629
L46055 49629
" />
<path d="M47885 48370
L46055 48370
" />
<path d="M46055 48370
L46055 48685
" />
<path d="M38901 40460
L38901 41539
" />
<path d="M38901 41539
L41476 41539
" />
<path d="M41476 41539
L41476 40460
" />
<path d="M41476 40460
L38901 40460
" />
<path d="M38598 41000
L38901 41000
" />
<path d="M41779 41000
L41476 41000
" />
<path d="M46055 46370
L46055 46685
" />
<path d="M47885 46370
L46055 46370
" />
<path d="M47885 47629
L46055 47629
" />
<path d="M33114 52519
L34944 52519
" />
<path d="M33114 53779
L34944 53779
" />
<path d="M34944 53779
L34944 53464
" />
<path d="M46055 52370
L46055 52685
" />
<path d="M47885 52370
L46055 52370
" />
<path d="M47885 53629
L46055 53629
" />
<path d="M47885 51629
L46055 51629
" />
<path d="M47885 50370
L46055 50370
" />
<path d="M46055 50370
L46055 50685
" />
<path d="M33114 50370
L34944 50370
" />
<path d="M33114 51629
L34944 51629
" />
<path d="M34944 51629
L34944 51314
" />
</g>
<g style="fill:#008484; fill-opacity:0.0; 
stroke:#008484; stroke-width:59.0551; stroke-opacity:1; 
stroke-linecap:round; stroke-linejoin:round;">
<path d="M30559 49178
L30371 49178
L30371 48784
" />
<path d="M30690 48971
L30821 48971
" />
<path d="M30878 49178
L30690 49178
L30690 48784
L30878 48784
" />
<path d="M31046 49178
L31046 48784
L31140 48784
L31196 48803
L31234 48840
L31253 48878
L31271 48953
L31271 49009
L31253 49084
L31234 49121
L31196 49159
L31140 49178
L31046 49178
" />
<path d="M31421 48821
L31440 48803
L31478 48784
L31571 48784
L31609 48803
L31628 48821
L31646 48859
L31646 48896
L31628 48953
L31403 49178
L31646 49178
" />
<path d="M26837 47178
L26650 47178
L26650 46784
" />
<path d="M26931 46784
L27025 47178
L27100 46896
L27175 47178
L27269 46784
" />
<path d="M27419 47028
L27718 47028
" />
<path d="M27850 46784
L28075 46784
" />
<path d="M27962 47178
L27962 46784
" />
<path d="M28150 46784
L28375 46784
" />
<path d="M28262 47178
L28262 46784
" />
<path d="M28487 47159
L28543 47178
L28637 47178
L28675 47159
L28693 47140
L28712 47103
L28712 47065
L28693 47028
L28675 47009
L28637 46990
L28562 46971
L28525 46953
L28506 46934
L28487 46896
L28487 46859
L28506 46821
L28525 46803
L28562 46784
L28656 46784
L28712 46803
" />
<path d="M28881 47178
L28881 46784
L28975 46784
L29031 46803
L29068 46840
L29087 46878
L29106 46953
L29106 47009
L29087 47084
L29068 47121
L29031 47159
L28975 47178
L28881 47178
" />
<path d="M29181 47215
L29481 47215
" />
<path d="M29556 47159
L29612 47178
L29706 47178
L29743 47159
L29762 47140
L29781 47103
L29781 47065
L29762 47028
L29743 47009
L29706 46990
L29631 46971
L29593 46953
L29574 46934
L29556 46896
L29556 46859
L29574 46821
L29593 46803
L29631 46784
L29724 46784
L29781 46803
" />
<path d="M29949 47178
L29949 46784
L30081 47065
L30212 46784
L30212 47178
" />
<path d="M30399 47178
L30399 46784
L30493 46784
L30549 46803
L30587 46840
L30606 46878
L30624 46953
L30624 47009
L30606 47084
L30587 47121
L30549 47159
L30493 47178
L30399 47178
" />
<path d="M30699 47215
L30999 47215
" />
<path d="M31281 47178
L31093 47178
L31093 46784
" />
<path d="M31412 46971
L31543 46971
" />
<path d="M31599 47178
L31412 47178
L31412 46784
L31599 46784
" />
<path d="M31768 47178
L31768 46784
L31862 46784
L31918 46803
L31955 46840
L31974 46878
L31993 46953
L31993 47009
L31974 47084
L31955 47121
L31918 47159
L31862 47178
L31768 47178
" />
<path d="M32330 46784
L32255 46784
L32218 46803
L32199 46821
L32162 46878
L32143 46953
L32143 47103
L32162 47140
L32180 47159
L32218 47178
L32293 47178
L32330 47159
L32349 47140
L32368 47103
L32368 47009
L32349 46971
L32330 46953
L32293 46934
L32218 46934
L32180 46953
L32162 46971
L32143 47009
" />
<path d="M49337 49178
L49150 49178
L49150 48784
" />
<path d="M49431 48784
L49525 49178
L49600 48896
L49675 49178
L49769 48784
" />
<path d="M49919 49028
L50218 49028
" />
<path d="M50350 48784
L50575 48784
" />
<path d="M50462 49178
L50462 48784
" />
<path d="M50650 48784
L50875 48784
" />
<path d="M50762 49178
L50762 48784
" />
<path d="M50987 49159
L51043 49178
L51137 49178
L51175 49159
L51193 49140
L51212 49103
L51212 49065
L51193 49028
L51175 49009
L51137 48990
L51062 48971
L51025 48953
L51006 48934
L50987 48896
L50987 48859
L51006 48821
L51025 48803
L51062 48784
L51156 48784
L51212 48803
" />
<path d="M51381 49178
L51381 48784
L51475 48784
L51531 48803
L51568 48840
L51587 48878
L51606 48953
L51606 49009
L51587 49084
L51568 49121
L51531 49159
L51475 49178
L51381 49178
" />
<path d="M51681 49215
L51981 49215
" />
<path d="M52056 49159
L52112 49178
L52206 49178
L52243 49159
L52262 49140
L52281 49103
L52281 49065
L52262 49028
L52243 49009
L52206 48990
L52131 48971
L52093 48953
L52074 48934
L52056 48896
L52056 48859
L52074 48821
L52093 48803
L52131 48784
L52224 48784
L52281 48803
" />
<path d="M52449 49178
L52449 48784
L52581 49065
L52712 48784
L52712 49178
" />
<path d="M52899 49178
L52899 48784
L52993 48784
L53049 48803
L53087 48840
L53106 48878
L53124 48953
L53124 49009
L53106 49084
L53087 49121
L53049 49159
L52993 49178
L52899 49178
" />
<path d="M53199 49215
L53499 49215
" />
<path d="M53781 49178
L53593 49178
L53593 48784
" />
<path d="M53912 48971
L54043 48971
" />
<path d="M54099 49178
L53912 49178
L53912 48784
L54099 48784
" />
<path d="M54268 49178
L54268 48784
L54362 48784
L54418 48803
L54455 48840
L54474 48878
L54493 48953
L54493 49009
L54474 49084
L54455 49121
L54418 49159
L54362 49178
L54268 49178
" />
<path d="M54718 48953
L54680 48934
L54662 48915
L54643 48878
L54643 48859
L54662 48821
L54680 48803
L54718 48784
L54793 48784
L54830 48803
L54849 48821
L54868 48859
L54868 48878
L54849 48915
L54830 48934
L54793 48953
L54718 48953
L54680 48971
L54662 48990
L54643 49028
L54643 49103
L54662 49140
L54680 49159
L54718 49178
L54793 49178
L54830 49159
L54849 49140
L54868 49103
L54868 49028
L54849 48990
L54830 48971
L54793 48953
" />
<path d="M39434 42178
L39303 41990
" />
<path d="M39209 42178
L39209 41784
L39359 41784
L39396 41803
L39415 41821
L39434 41859
L39434 41915
L39415 41953
L39396 41971
L39359 41990
L39209 41990
" />
<path d="M39809 42178
L39584 42178
" />
<path d="M39696 42178
L39696 41784
L39659 41840
L39621 41878
L39584 41896
" />
<path d="M49059 47178
L48871 47178
L48871 46784
" />
<path d="M49190 46971
L49321 46971
" />
<path d="M49378 47178
L49190 47178
L49190 46784
L49378 46784
" />
<path d="M49546 47178
L49546 46784
L49640 46784
L49696 46803
L49734 46840
L49753 46878
L49771 46953
L49771 47009
L49753 47084
L49734 47121
L49696 47159
L49640 47178
L49546 47178
" />
<path d="M49903 46784
L50146 46784
L50015 46934
L50071 46934
L50109 46953
L50128 46971
L50146 47009
L50146 47103
L50128 47140
L50109 47159
L50071 47178
L49959 47178
L49921 47159
L49903 47140
" />
<path d="M30559 53178
L30371 53178
L30371 52784
" />
<path d="M30690 52971
L30821 52971
" />
<path d="M30878 53178
L30690 53178
L30690 52784
L30878 52784
" />
<path d="M31046 53178
L31046 52784
L31140 52784
L31196 52803
L31234 52840
L31253 52878
L31271 52953
L31271 53009
L31253 53084
L31234 53121
L31196 53159
L31140 53178
L31046 53178
" />
<path d="M31646 53178
L31421 53178
" />
<path d="M31534 53178
L31534 52784
L31496 52840
L31459 52878
L31421 52896
" />
<path d="M49059 52678
L48871 52678
L48871 52284
" />
<path d="M49190 52471
L49321 52471
" />
<path d="M49378 52678
L49190 52678
L49190 52284
L49378 52284
" />
<path d="M49546 52678
L49546 52284
L49640 52284
L49696 52303
L49734 52340
L49753 52378
L49771 52453
L49771 52509
L49753 52584
L49734 52621
L49696 52659
L49640 52678
L49546 52678
" />
<path d="M50109 52415
L50109 52678
" />
<path d="M50015 52265
L49921 52546
L50165 52546
" />
<path d="M49337 51178
L49150 51178
L49150 50784
" />
<path d="M49431 50784
L49525 51178
L49600 50896
L49675 51178
L49769 50784
" />
<path d="M49919 51028
L50218 51028
" />
<path d="M50350 50784
L50575 50784
" />
<path d="M50462 51178
L50462 50784
" />
<path d="M50650 50784
L50875 50784
" />
<path d="M50762 51178
L50762 50784
" />
<path d="M50987 51159
L51043 51178
L51137 51178
L51175 51159
L51193 51140
L51212 51103
L51212 51065
L51193 51028
L51175 51009
L51137 50990
L51062 50971
L51025 50953
L51006 50934
L50987 50896
L50987 50859
L51006 50821
L51025 50803
L51062 50784
L51156 50784
L51212 50803
" />
<path d="M51381 51178
L51381 50784
L51475 50784
L51531 50803
L51568 50840
L51587 50878
L51606 50953
L51606 51009
L51587 51084
L51568 51121
L51531 51159
L51475 51178
L51381 51178
" />
<path d="M51681 51215
L51981 51215
" />
<path d="M52056 51159
L52112 51178
L52206 51178
L52243 51159
L52262 51140
L52281 51103
L52281 51065
L52262 51028
L52243 51009
L52206 50990
L52131 50971
L52093 50953
L52074 50934
L52056 50896
L52056 50859
L52074 50821
L52093 50803
L52131 50784
L52224 50784
L52281 50803
" />
<path d="M52449 51178
L52449 50784
L52581 51065
L52712 50784
L52712 51178
" />
<path d="M52899 51178
L52899 50784
L52993 50784
L53049 50803
L53087 50840
L53106 50878
L53124 50953
L53124 51009
L53106 51084
L53087 51121
L53049 51159
L52993 51178
L52899 51178
" />
<path d="M53199 51215
L53499 51215
" />
<path d="M53781 51178
L53593 51178
L53593 50784
" />
<path d="M53912 50971
L54043 50971
" />
<path d="M54099 51178
L53912 51178
L53912 50784
L54099 50784
" />
<path d="M54268 51178
L54268 50784
L54362 50784
L54418 50803
L54455 50840
L54474 50878
L54493 50953
L54493 51009
L54474 51084
L54455 51121
L54418 51159
L54362 51178
L54268 51178
" />
<path d="M54849 50784
L54662 50784
L54643 50971
L54662 50953
L54699 50934
L54793 50934
L54830 50953
L54849 50971
L54868 51009
L54868 51103
L54849 51140
L54830 51159
L54793 51178
L54699 51178
L54662 51159
L54643 51140
" />
<path d="M26837 51178
L26650 51178
L26650 50784
" />
<path d="M26931 50784
L27025 51178
L27100 50896
L27175 51178
L27269 50784
" />
<path d="M27419 51028
L27718 51028
" />
<path d="M27850 50784
L28075 50784
" />
<path d="M27962 51178
L27962 50784
" />
<path d="M28150 50784
L28375 50784
" />
<path d="M28262 51178
L28262 50784
" />
<path d="M28487 51159
L28543 51178
L28637 51178
L28675 51159
L28693 51140
L28712 51103
L28712 51065
L28693 51028
L28675 51009
L28637 50990
L28562 50971
L28525 50953
L28506 50934
L28487 50896
L28487 50859
L28506 50821
L28525 50803
L28562 50784
L28656 50784
L28712 50803
" />
<path d="M28881 51178
L28881 50784
L28975 50784
L29031 50803
L29068 50840
L29087 50878
L29106 50953
L29106 51009
L29087 51084
L29068 51121
L29031 51159
L28975 51178
L28881 51178
" />
<path d="M29181 51215
L29481 51215
" />
<path d="M29556 51159
L29612 51178
L29706 51178
L29743 51159
L29762 51140
L29781 51103
L29781 51065
L29762 51028
L29743 51009
L29706 50990
L29631 50971
L29593 50953
L29574 50934
L29556 50896
L29556 50859
L29574 50821
L29593 50803
L29631 50784
L29724 50784
L29781 50803
" />
<path d="M29949 51178
L29949 50784
L30081 51065
L30212 50784
L30212 51178
" />
<path d="M30399 51178
L30399 50784
L30493 50784
L30549 50803
L30587 50840
L30606 50878
L30624 50953
L30624 51009
L30606 51084
L30587 51121
L30549 51159
L30493 51178
L30399 51178
" />
<path d="M30699 51215
L30999 51215
" />
<path d="M31281 51178
L31093 51178
L31093 50784
" />
<path d="M31412 50971
L31543 50971
" />
<path d="M31599 51178
L31412 51178
L31412 50784
L31599 50784
" />
<path d="M31768 51178
L31768 50784
L31862 50784
L31918 50803
L31955 50840
L31974 50878
L31993 50953
L31993 51009
L31974 51084
L31955 51121
L31918 51159
L31862 51178
L31768 51178
" />
<path d="M32124 50784
L32387 50784
L32218 51178
" />
</g>
<g style="fill:#000000; fill-opacity:0.0; 
stroke:#000000; stroke-width:59.0551; stroke-opacity:1; 
stroke-linecap:round; stroke-linejoin:round;">
</g>
<g style="fill:#C2C200; fill-opacity:0.0; 
stroke:#C2C200; stroke-width:59.0551; stroke-opacity:1; 
stroke-linecap:round; stroke-linejoin:round;">
<path d="M42913 45669
L44094 47244
" />
<path d="M37795 45669
L42913 45669
" />
<path d="M36614 47244
L37795 45669
" />
<path d="M44094 56299
L48425 56299
" />
<path d="M44094 47244
L44094 56299
" />
<path d="M36614 56299
L36614 47244
" />
<path d="M32283 56299
L36614 56299
" />
<path d="M32283 39370
L32283 56299
" />
<path d="M48425 39370
L32283 39370
" />
<path d="M48425 56299
L48425 39370
" />
</g> 
</svg>
